<svg width="128" height="69" viewBox="0 0 128 69" fill="none" xmlns="http://www.w3.org/2000/svg">
<path d="M13.8139 35.9578H6.7334L0 67.6811H6.7334C10.9678 67.6811 13.6056 65.4598 14.5775 61.0171L18.4648 42.6218C19.4366 38.1791 17.84 35.9578 13.8139 35.9578ZM13.8833 42.6218L9.99598 61.0171C9.64889 62.4749 8.88531 63.1691 7.5664 63.1691H5.55332L10.4125 40.4698H12.4256C13.6751 40.4698 14.2304 41.164 13.8833 42.6218Z" fill="#CFCFCF"/>
<path d="M31.3069 67.6811L33.3199 35.9578H27.0725L15.5493 67.6811H20.2002L28.5996 43.2465L26.656 67.6811H31.3069Z" fill="#CFCFCF"/>
<path d="M45.7456 54.3531L45.3291 35.9578H40.7476L34.0142 67.6811H38.4568L42.2053 49.8411L42.6218 67.6811H47.2033L53.9367 35.9578H49.7023L45.7456 54.3531Z" fill="#CFCFCF"/>
<path d="M64.488 35.4718C60.1147 35.4718 57.4769 37.6931 56.5051 42.1358L52.4095 61.5724C51.4377 66.0151 53.1731 68.2364 57.5463 68.2364C61.9196 68.2364 64.6268 66.0151 65.5292 61.5724L66.4316 57.2686H61.8502L60.9477 61.5724C60.6701 63.0302 59.8371 63.7243 58.5182 63.7243C57.1993 63.7243 56.7133 63.0302 56.991 61.5724L61.0866 42.1358C61.3642 40.678 62.1972 39.9839 63.5162 39.9839C64.8351 39.9839 65.3904 40.678 65.0433 42.1358L64.3491 45.2595H68.9306L69.6248 42.1358C70.5966 37.6931 68.8612 35.4718 64.488 35.4718Z" fill="#CFCFCF"/>
<path d="M85.5904 40.4698L86.5622 35.9578H74.692L67.8892 67.6811H79.8288L80.7312 63.1691H73.4425L76.2886 49.8411H82.536L83.5079 45.329H77.2604L78.3016 40.4698H85.5904Z" fill="#CFCFCF"/>
<path d="M126.541 46.9255C126.402 46.8561 125.014 46.4396 123.973 46.4396C123.14 46.4396 122.515 46.7173 122.098 47.2726L121.96 47.4809L121.89 47.6891C121.821 48.0362 121.474 49.9799 121.404 50.4658C121.335 51.0905 121.474 51.7847 121.89 52.2012C122.168 52.5483 122.584 52.7565 123.001 52.7565C123.07 52.7565 123.07 52.7565 123.14 52.7565C123.14 52.8954 123.209 52.9648 123.209 53.1036C123.487 53.8672 124.181 54.2837 125.014 54.2837C125.153 54.2837 125.361 54.2837 125.569 54.2143C126.263 54.0755 127.721 53.5895 127.86 52.34C127.929 51.9235 128.068 49.3551 127.305 47.6197L127.096 47.0644L126.541 46.9255ZM126.61 52.2012C126.541 52.6177 125.847 52.8954 125.361 52.9648C125.222 52.9648 125.153 52.9648 125.014 52.9648C124.736 52.9648 124.459 52.8954 124.389 52.6177C124.25 52.2706 124.042 50.1187 123.903 50.1187C123.764 50.1187 123.209 51.507 123.001 51.507C122.793 51.507 122.584 51.0905 122.654 50.6046C122.723 50.1187 123.14 47.9668 123.14 47.9668C123.278 47.7585 123.556 47.6891 123.903 47.6891C124.806 47.6891 126.125 48.1056 126.125 48.1056C126.749 49.494 126.68 51.7847 126.61 52.2012Z" fill="#CFCFCF"/>
<path d="M126.194 64.4185C120.363 55.1167 116.684 47.6891 116.684 45.5372L116.962 36.0965C117.864 36.513 118.905 37.0684 119.599 37.6237C119.946 38.4567 120.71 41.6499 121.265 44.3571L121.335 44.7736L121.612 45.0513C122.445 45.8149 123.764 45.9537 124.459 45.9537C124.944 45.9537 125.777 45.8843 126.541 45.5372L127.374 45.1207L127.235 44.2183C126.888 41.2334 125.847 34.1529 124.736 32.6951C123.556 31.2374 120.432 29.8491 116.753 28.3219C115.781 27.9054 115.018 27.5583 114.601 27.4195L114.324 27.2806H113.977C113.977 27.2806 113.144 27.2806 112.033 27.2806C107.174 27.2806 104.744 27.0724 104.12 26.8641C103.772 26.7253 102.454 25.4064 100.44 22.5603C99.4686 21.2414 97.6638 16.4517 97.1085 14.7163L96.5531 13.1891L95.1648 14.0915C94.2624 14.6468 93.4294 14.9939 92.7352 14.9939H91.2081L91.4857 16.5905C91.5551 16.8682 93.4294 24.2263 96.206 28.3913C96.7614 29.2243 97.8026 30.0573 98.8439 30.9597C99.6075 31.5845 100.44 32.3481 100.926 32.9034L101.829 45.0513C101.551 45.5372 100.649 46.8561 99.9545 47.8279C97.7332 50.8823 96.1366 53.173 95.9978 54.7002C95.6507 57.4074 94.8177 61.9195 94.4706 63.7243C92.3187 64.002 91.6246 64.4185 91.2081 64.835C89.8891 66.1539 90.0974 67.6117 90.1668 67.8199L90.3751 68.8612H91.4163L100.649 68.7223H101.898V67.4034V65.2515C101.898 65.0433 101.829 64.6962 101.551 64.3491C101.829 62.6137 102.592 58.7263 103.495 56.505C103.772 55.8803 106.202 53.5201 108.632 51.3682C110.784 54.2837 116.476 62.1972 117.933 66.0151C117.586 66.8481 117.517 67.6117 117.517 67.6811L117.447 69H118.766H126.402H127.652V67.7505C127.929 66.7092 127.443 65.3903 126.194 64.4185ZM118.975 67.7505C118.975 67.7505 119.044 66.9175 119.53 66.0845C118.072 61.503 109.048 49.4939 109.048 49.4939C109.048 49.4939 103.078 54.4919 102.523 55.9497C101.412 58.7958 100.51 63.9326 100.371 64.835C100.788 64.9738 100.788 65.1127 100.788 65.1127V67.4034L91.5551 67.5422C91.5551 67.5422 91.3469 66.6398 92.2493 65.7374C92.7352 65.2515 94.2624 65.0433 95.7895 64.9044C95.7895 64.835 95.7201 64.835 95.7201 64.835C95.7201 64.835 97.039 58.3793 97.4555 54.9084C97.7332 52.6177 103.287 46.2314 103.356 45.2595L102.384 32.4869C101.412 31.0291 98.358 29.0855 97.4555 27.6971C94.7483 23.671 92.9435 16.2434 92.9435 16.2434H93.0129C94.0541 16.2434 95.2342 15.7575 96.1366 15.2022C96.1366 15.2022 98.358 21.5885 99.6769 23.3933C100.788 24.9205 103.009 27.836 104.05 28.1136C105.369 28.5301 109.742 28.5996 112.311 28.5996C113.491 28.5996 114.254 28.5996 114.254 28.5996C115.781 29.4326 122.515 31.7927 123.973 33.5976C125.014 34.9165 126.194 44.4265 126.194 44.4265C125.847 44.6348 125.222 44.7042 124.667 44.7042C123.903 44.7042 123.07 44.496 122.654 44.1489C122.654 44.1489 121.265 37.2766 120.71 36.7907C119.322 35.68 116.198 34.2917 115.92 34.2917L115.573 45.6066C115.504 49.2857 123.001 61.503 125.361 65.3903C126.472 66.1539 126.749 67.2646 126.749 67.8199L118.975 67.7505Z" fill="#CFCFCF"/>
<path d="M90.7224 12.9809L91.0001 13.1197C91.1389 13.1891 92.1107 13.6056 93.152 13.6056C94.6097 13.6056 95.651 12.6338 95.651 11.1761V10.9678L95.5815 10.7596C94.6097 7.35815 92.9437 1.52716 92.3884 0.694165C92.1107 0.277666 91.6942 0 91.2083 0C90.1671 0 89.6117 1.11066 89.5423 1.80483C89.4729 2.56841 89.9588 4.30382 90.3753 5.76157C89.82 6.03924 89.3341 6.38632 89.0564 6.66399C87.5292 8.53823 90.1671 12.1479 90.5141 12.5644L90.7224 12.9809ZM90.0282 7.63582C90.3059 7.35815 91.3471 6.80282 91.9719 6.66399C91.9719 6.66399 90.7224 2.84608 90.7918 2.01308C90.7918 1.73541 91.0695 1.38833 91.2083 1.38833C91.2777 1.38833 91.2777 1.38833 91.3471 1.45775C91.8331 2.22133 94.4015 11.1761 94.4015 11.1761C94.4015 12.0785 93.7767 12.3561 93.152 12.3561C92.3884 12.3561 91.5554 12.0091 91.5554 12.0091C90.5141 10.6901 89.4035 8.46881 90.0282 7.63582Z" fill="#CFCFCF"/>
<path d="M102.662 20.8943H103.425H103.981V23.2545C103.981 24.504 104.814 25.337 106.133 25.337H113.491C114.949 25.337 115.712 24.2957 115.712 23.3239V19.7142C116.059 19.7836 116.406 19.853 116.753 19.853C118.628 19.853 119.461 17.2152 119.461 15.8269C119.461 13.675 118.628 12.6337 117.795 12.2172C117.586 7.01099 114.463 3.54016 109.951 3.54016C104.328 3.54016 102.454 9.30173 102.454 11.8701H102.523C101.412 12.0784 100.371 12.9808 100.371 14.2997V18.673C100.371 19.7836 101.135 20.8943 102.662 20.8943ZM114.393 23.3933C114.393 23.671 114.185 24.0875 113.421 24.0875H106.063C105.438 24.0875 105.161 23.8098 105.161 23.2545V20.8943H105.439C109.742 20.8943 110.645 20.8943 110.922 20.8249C112.38 20.686 113.144 19.7142 113.074 17.9788V17.0764C113.074 15.9657 113.005 14.7162 112.935 14.1609C112.797 12.7031 111.755 11.8007 110.228 11.8007H105.994C106.41 10.4124 107.382 8.46874 109.881 8.46874C112.45 8.46874 113.907 9.92648 114.324 12.7031C113.907 13.1891 113.63 13.7444 113.63 14.508C113.63 15.2021 113.699 17.4235 114.046 18.2565C114.116 18.5341 114.254 18.7424 114.463 18.9506V23.3933H114.393ZM118.281 15.8269C118.281 16.9376 117.586 18.673 116.753 18.673C115.92 18.673 115.365 18.5341 115.157 17.9094C114.949 17.2846 114.81 15.341 114.81 14.508C114.81 13.675 115.573 12.9808 116.129 12.9808C118.003 13.0502 118.281 14.7162 118.281 15.8269ZM109.951 4.85908C113.699 4.85908 116.198 7.56632 116.476 11.8701C116.337 11.8701 116.267 11.8701 116.129 11.8701C115.92 11.8701 115.712 11.9396 115.434 12.009C114.81 8.95465 112.866 7.28865 109.881 7.28865C107.313 7.28865 105.438 8.95465 104.675 11.8701H103.634C103.703 9.85707 105.23 4.85908 109.951 4.85908ZM101.551 14.3691C101.551 13.5361 102.315 13.0502 102.94 13.0502C103.564 13.0502 110.298 13.0502 110.298 13.0502C111.339 13.0502 111.686 13.675 111.755 14.2997C111.825 14.9939 111.825 16.9376 111.894 18.0482C111.894 19.1589 111.686 19.5754 110.853 19.6448C110.367 19.7142 107.66 19.7142 105.439 19.7142C104.189 19.7142 103.009 19.7142 102.592 19.7142C101.829 19.7142 101.482 19.2283 101.482 18.8118C101.551 18.3259 101.551 15.2021 101.551 14.3691Z" fill="#CFCFCF"/>
<path d="M105.23 20.9638H105.508C109.812 20.9638 110.714 20.9638 110.992 20.8944C112.45 20.7556 113.213 19.7837 113.144 18.0483V17.1459C113.144 16.0352 113.074 14.7857 113.005 14.2304C112.866 12.7727 111.825 11.8702 110.298 11.8702H107.729H105.994H104.675H103.634H102.384V11.9397H102.454C101.343 12.1479 100.302 13.0503 100.302 14.3692V18.7425C100.302 19.7837 101.135 20.8944 102.592 20.8944H103.356H103.911H105.23V20.9638ZM102.662 19.7143C101.898 19.7143 101.551 19.2284 101.551 18.8119C101.551 18.3954 101.551 15.2022 101.551 14.4387C101.551 13.6057 102.315 13.1197 102.94 13.1197C103.564 13.1197 110.298 13.1197 110.298 13.1197C111.339 13.1197 111.686 13.7445 111.755 14.3692C111.825 15.0634 111.825 17.0071 111.894 18.1177C111.894 19.2284 111.686 19.6449 110.853 19.7143C110.367 19.7837 107.66 19.7837 105.439 19.7837C104.189 19.7143 103.078 19.7143 102.662 19.7143Z" fill="#CFCFCF"/>
<path d="M18.3954 28.9467C18.3954 29.1549 18.1178 29.2938 17.493 29.502C16.8683 29.6409 16.2435 29.7797 15.6188 29.8491C14.994 29.9185 14.4387 29.9185 14.0916 29.9185C13.6751 29.9185 13.328 29.9185 13.0504 29.9185C12.7727 29.9185 12.3562 29.8491 11.9397 29.7797C11.5232 29.7103 11.0373 29.5714 10.6208 29.4326C10.2043 29.2938 9.78778 29.0161 9.37128 28.8079L8.95478 28.5302C8.81595 28.4608 8.74653 28.3914 8.6077 28.2525L8.26061 27.836C7.3582 26.8642 6.73345 25.6841 6.31695 24.3652C5.96987 23.0463 5.96987 21.9356 6.31695 21.0332L6.45579 20.7556V20.6167C7.08053 19.4366 8.39945 18.8119 10.6208 18.8119C10.9679 18.8119 11.3149 18.8119 11.662 18.8813C12.0785 18.9507 12.495 19.0201 12.9115 19.159C13.328 19.2978 13.8139 19.4366 14.2304 19.7143C14.6469 19.9226 15.0634 20.2002 15.3411 20.5473C15.4799 20.6861 15.6188 20.825 15.7576 21.0332C15.8964 21.2415 15.9658 21.4497 16.1047 21.7274C16.2435 22.005 16.3129 22.2133 16.3823 22.3521C16.4518 22.5604 16.3129 22.6298 15.9658 22.6298H15.3411C15.2023 22.6298 14.9246 22.6298 14.4387 22.6298C13.9528 22.6298 13.6057 22.6298 13.328 22.6298H12.495C12.4256 22.6298 12.3562 22.491 12.2174 22.3521C12.1479 22.2133 12.0785 22.1439 12.0091 22.1439C11.8703 21.9356 11.5926 21.7968 11.3149 21.7968C11.1067 21.7968 10.8984 21.8662 10.829 21.9356C10.6902 22.005 10.6208 22.1439 10.5514 22.2827C10.4819 22.4215 10.4819 22.5604 10.4819 22.7686C10.4819 22.9769 10.4819 23.1851 10.5514 23.324C10.6208 23.4628 10.6208 23.671 10.6902 23.8793C10.6902 23.9487 10.7596 24.0875 10.7596 24.157C10.829 24.2958 10.829 24.3652 10.829 24.4346L10.9679 25.0594C11.0373 25.2676 11.1067 25.4065 11.1067 25.5453C11.1067 25.6841 11.2455 25.823 11.3149 26.0312C11.3844 26.2395 11.5232 26.3783 11.662 26.4477C11.8009 26.5171 11.9397 26.656 12.1479 26.7254C12.3562 26.7948 12.5644 26.8642 12.8421 26.8642C13.328 26.8642 13.7445 26.7948 14.0222 26.7254L13.9528 26.3783C13.9528 26.3089 13.9528 26.3089 13.8834 26.2395C13.8834 26.17 13.8139 26.1006 13.8139 26.1006V26.0312C13.8139 25.9618 13.8139 25.9618 13.8139 25.8924H13.5363C13.4669 25.8924 13.4669 25.8924 13.3974 25.8924C13.328 25.8924 13.328 25.8924 13.2586 25.8924H12.6339L12.2868 25.6147C12.2868 25.5453 12.2174 25.4759 12.2174 25.4065L12.0785 24.9205C12.0785 24.8511 12.0091 24.7817 12.0091 24.6429C12.0091 24.504 11.9397 24.4346 11.9397 24.2958L11.8009 24.0181C11.8009 24.0181 11.8009 24.0181 11.8009 23.9487C11.8009 23.8793 11.8009 23.8793 11.8009 23.8793V23.8099C11.8009 23.7405 11.8009 23.671 11.8009 23.6016C11.8009 23.5322 11.8703 23.4628 11.9397 23.3934H12.7033C12.7727 23.3934 12.8421 23.3934 12.9809 23.3934H13.6751C14.2304 23.3934 14.5775 23.3934 14.8552 23.3934H15.6188C16.3823 23.3934 16.9377 23.4628 17.0765 23.6016C17.2153 24.0875 17.4236 24.8511 17.7013 25.8924C17.9789 26.9336 18.1872 27.6972 18.326 28.1831L18.3954 28.9467Z" fill="#CFCFCF"/>
<path d="M21.7276 29.6408L18.7427 19.3672C18.7427 19.2978 18.7427 19.2978 18.8121 19.2284C18.8815 19.2284 18.9509 19.1589 18.9509 19.1589H23.1853L26.1008 29.3632C26.1008 29.502 26.1008 29.5714 26.1008 29.5714C26.1008 29.6408 26.0314 29.6408 26.0314 29.6408H21.7276Z" fill="#CFCFCF"/>
<path d="M26.5171 22.0745L25.6841 19.2285H34.7776C34.8471 19.2285 34.9165 19.2979 34.9859 19.2979C35.0553 19.3673 35.0553 19.4367 35.0553 19.5061L35.7495 22.0051C35.7495 22.1439 35.7495 22.2134 35.6106 22.2134H33.3893L35.4718 29.4327C35.4718 29.4327 35.4718 29.4327 35.4718 29.5021C35.4718 29.5021 35.4718 29.5021 35.4718 29.5715C35.4718 29.5715 35.4718 29.5715 35.4024 29.5715H35.333H34.8471C34.1529 29.5715 33.8058 29.5715 33.8058 29.5021C33.7364 29.5021 33.7364 29.5021 33.5976 29.5021C33.5281 29.5021 33.4587 29.5021 33.3893 29.5021H32.7646C32.6257 29.5021 32.4869 29.5021 32.2787 29.5021C32.0704 29.5021 31.8622 29.5021 31.7927 29.5021H31.3762L31.0292 29.2938L30.5432 27.6279C30.4738 27.3502 30.2656 26.656 30.0573 25.6842C29.8491 24.7124 29.5714 23.8794 29.4326 23.324L29.3632 23.1158C29.3632 23.0464 29.3632 22.9769 29.2937 22.9075C29.2243 22.8381 29.2243 22.7687 29.2243 22.6993C29.2243 22.6299 29.1549 22.5604 29.1549 22.4216C29.1549 22.2828 29.0855 22.2134 29.0855 22.1439H27.0724C26.9336 22.1439 26.8642 22.1439 26.7253 22.0745C26.5865 22.0051 26.5865 22.1439 26.5171 22.0745Z" fill="#CFCFCF"/>
<path d="M45.6068 29.9185C44.7044 29.9185 43.9408 29.7797 43.1078 29.502C42.3442 29.2244 41.65 28.8079 41.0253 28.2525C40.4005 27.6972 39.984 27.1419 39.4981 26.4477C39.0816 25.7535 38.7345 24.99 38.5263 24.157V24.0181C38.5263 23.9487 38.5263 23.8793 38.4569 23.7405C38.3875 23.6016 38.3875 23.5322 38.3875 23.4628C38.3875 23.3934 38.3875 23.324 38.318 23.1851C38.318 23.0463 38.318 22.9769 38.2486 22.9075C38.1792 22.838 38.2486 22.7686 38.2486 22.6298C38.2486 22.491 38.2486 22.4215 38.2486 22.3521C38.2486 22.2827 38.2486 22.2133 38.2486 22.0745C38.2486 21.9356 38.2486 21.8662 38.2486 21.7968C38.2486 21.7274 38.2486 21.5885 38.318 21.5191C38.3875 21.0332 38.5957 20.6167 38.8734 20.2002C39.151 19.8531 39.4287 19.5755 39.8452 19.3672C40.1923 19.159 40.6088 19.0201 41.0947 18.9507C41.5806 18.8813 41.9971 18.8119 42.483 18.8119C43.1078 18.8119 43.7325 18.8813 44.2879 19.0201C44.8432 19.159 45.3291 19.2978 45.7456 19.5061C46.1621 19.7143 46.5092 19.992 46.8563 20.2696C47.2034 20.5473 47.481 20.8944 47.6893 21.2415C47.8975 21.5886 48.1058 21.9356 48.2446 22.2827L48.4529 22.9769C48.4529 23.0463 48.4529 23.1157 48.3834 23.1157C48.314 23.1157 48.2446 23.1851 48.1752 23.1851C48.1058 23.1851 48.0364 23.1851 47.8975 23.1851H44.5655L44.3573 22.491C44.2879 22.2827 44.149 22.1439 44.0102 22.005C43.8714 21.8662 43.6631 21.7968 43.4549 21.7968C43.316 21.7968 43.1772 21.7968 43.0384 21.8662C42.9689 21.9356 42.8301 22.005 42.8301 22.1439C42.7607 22.2827 42.7607 22.3521 42.7607 22.5604C42.7607 22.6992 42.7607 22.838 42.8301 23.0463C42.8301 23.1851 42.8995 23.3934 42.969 23.5322C43.0384 23.671 43.0384 23.8793 43.1078 24.0181C43.1078 24.157 43.1772 24.2264 43.1772 24.2264L43.4549 25.1288C43.5243 25.2676 43.5243 25.4065 43.5937 25.4759C43.6631 25.6147 43.7325 25.7535 43.8019 25.9618C43.9408 26.17 44.0102 26.3089 44.2184 26.4477C44.4267 26.5865 44.5655 26.656 44.7738 26.656C44.982 26.656 45.1209 26.5865 45.1209 26.3783C45.1903 26.2395 45.1903 26.0312 45.1903 25.7535C45.1903 25.4759 45.1903 25.337 45.2597 25.2676C45.4679 25.2676 45.815 25.2676 46.2315 25.2676C46.648 25.2676 46.9951 25.2676 47.2034 25.2676C47.3422 25.2676 47.5504 25.2676 47.8281 25.2676C48.1058 25.2676 48.314 25.2676 48.4529 25.2676H49.0082C49.147 25.2676 49.2859 25.4065 49.3553 25.6147L49.4247 25.8924C49.6329 26.9336 49.4941 27.7666 49.0082 28.3914C48.5223 29.0161 47.8281 29.4326 46.9257 29.5714V29.6409C46.5786 29.8491 46.1621 29.9185 45.6068 29.9185Z" fill="#CFCFCF"/>
<path d="M51.2293 24.2958L51.1599 24.157C51.0211 23.324 50.9517 22.6992 50.9517 22.3521C50.9517 21.5885 51.0905 20.8944 51.507 20.4085L51.6458 20.2002C51.7847 19.9226 52.1317 19.6449 52.5482 19.4366H52.8259C53.2424 19.2284 54.0754 19.0201 55.1861 18.8119C55.4637 18.8119 55.8108 18.8119 56.1579 18.8813C56.505 18.9507 56.8521 19.0201 57.2686 19.0896C57.6851 19.159 58.1016 19.3672 58.5181 19.5755C58.9346 19.7837 59.3511 20.0614 59.6287 20.3391L59.6981 20.5473C60.8782 21.5886 61.6418 22.838 61.9889 24.157C62.4054 25.6841 62.4054 26.8642 61.9889 27.836L61.7806 28.2525C61.6418 28.5302 61.4336 28.8079 61.0865 29.0161C60.8088 29.2244 60.4617 29.3632 60.1146 29.502C59.7676 29.6409 59.3511 29.7103 59.004 29.7103C58.6569 29.7797 58.3098 29.7797 57.8933 29.7797C57.338 29.7797 56.8521 29.7103 56.2967 29.5715C55.7414 29.4326 55.2555 29.2244 54.7696 28.9467C54.2837 28.669 53.7977 28.322 53.3812 27.9749C52.9647 27.5584 52.5482 27.0725 52.2012 26.5171C51.8541 25.9618 51.507 25.337 51.2987 24.6429L51.2293 24.2958ZM55.5332 24.3652C56.0885 26.17 56.6438 27.1419 57.4074 27.1419C57.6156 27.1419 57.7545 27.0725 57.8933 27.003C58.0321 26.9336 58.1016 26.7948 58.171 26.656C58.2404 26.5171 58.2404 26.3783 58.2404 26.17C58.2404 26.0312 58.2404 25.823 58.171 25.6147C58.1016 25.4065 58.1016 25.1982 58.0321 24.99C57.9627 24.7817 57.9627 24.5735 57.8933 24.3652L57.8239 24.0875C57.7545 23.8099 57.6851 23.5322 57.5462 23.324C57.4768 23.0463 57.338 22.838 57.1991 22.5604C57.0603 22.2827 56.8521 22.0745 56.6438 21.9356C56.4356 21.7968 56.2273 21.7274 56.0191 21.7274C55.2555 21.7274 55.0472 22.491 55.5332 24.0181V24.3652Z" fill="#CFCFCF"/>
<path d="M66.4317 29.6408L63.4468 19.3672C63.4468 19.2978 63.4468 19.2978 63.5162 19.2284C63.5856 19.2284 63.655 19.1589 63.655 19.1589H67.8894L70.8049 29.3632C70.8049 29.502 70.8049 29.5714 70.8049 29.5714C70.8049 29.6408 70.7355 29.6408 70.7355 29.6408H66.4317Z" fill="#CFCFCF"/>
<path d="M81.634 19.2285C81.7034 19.2285 81.7728 19.3673 81.8422 19.5061C81.9117 19.645 81.9811 19.8532 82.0505 20.1309C82.1199 20.3391 82.1893 20.6168 82.2587 20.825C82.3282 21.0333 82.3976 21.2415 82.467 21.5192C82.5364 21.7274 82.5364 21.8663 82.6058 21.9357C82.6752 22.1439 82.7447 22.4216 82.8141 22.8381L83.0223 23.6711C83.1612 24.0182 83.3 24.5041 83.4388 25.1983C83.5777 25.8924 83.7859 26.3089 83.8553 26.5866L84.6883 29.4327C84.6883 29.6409 84.6189 29.7103 84.3412 29.7103H79.968C79.8986 29.7103 79.6903 29.5021 79.4127 29.0856C79.2044 28.8079 78.9267 28.322 78.5102 27.6973C78.0938 27.0725 77.7467 26.5172 77.3996 26.0313C77.1219 25.5454 76.8443 25.0594 76.5666 24.6429V24.5735V24.6429C76.636 24.99 76.7748 25.4759 76.9831 26.1701C77.1913 26.8643 77.2608 27.3502 77.3996 27.6973L77.8855 29.2938C77.9549 29.4327 77.9549 29.5715 77.9549 29.6409C77.9549 29.7103 77.8855 29.7798 77.6773 29.7798H74.4841L74.0676 29.4327C73.8593 28.5997 73.4428 27.2114 72.9569 25.3371C72.471 23.4629 72.0545 22.1439 71.8463 21.2415L71.3604 19.5755C71.3604 19.3673 71.3603 19.2979 71.4992 19.2979C71.8463 19.2979 72.4016 19.2979 73.1652 19.2979C73.9288 19.2979 74.4841 19.2979 74.9006 19.2979H76.2195C76.3583 19.3673 76.3583 19.3673 76.4278 19.4367V19.5061C76.7748 19.992 77.1219 20.5474 77.469 21.1027C77.8161 21.658 78.2326 22.2828 78.7185 23.0464C79.2044 23.8099 79.5515 24.3653 79.7597 24.6429L79.4127 23.4629C78.9962 21.658 78.6491 20.3391 78.4408 19.5755C78.4408 19.5061 78.4408 19.4367 78.5797 19.4367C78.7185 19.4367 78.8573 19.4367 79.135 19.4367H81.634V19.2285Z" fill="#CFCFCF"/>
</svg>
