<svg width="21" height="26" viewBox="0 0 21 26" fill="none" xmlns="http://www.w3.org/2000/svg">
<g opacity="0.5">
<path fill-rule="evenodd" clip-rule="evenodd" d="M17.2065 10.2065C18.0531 11.3916 18.5005 12.8186 18.4884 14.2577C18.4884 15.6725 18.0289 17.0995 17.2065 18.2483L18.96 19.5786C20.0726 18.0428 20.6893 16.1563 20.6893 14.2577C20.7014 12.2502 20.0363 10.279 18.827 8.68277L17.8233 9.58975L17.2065 10.2065Z" fill="#AA8BFC"/>
<path fill-rule="evenodd" clip-rule="evenodd" d="M20.5324 20.7758L14.631 16.2893C15.0542 15.733 15.2961 15.0679 15.3324 14.3665C15.3566 13.6651 15.1752 12.9879 14.8003 12.3953L17.6301 9.84372L20.5808 7.07442C20.7742 6.89302 20.7863 6.5786 20.5928 6.38512L20.1817 5.97395C18.0775 3.84558 15.2477 2.6 12.2608 2.50326L12.2729 0.882791C12.2849 0.773953 12.2729 0.665116 12.2487 0.556279C12.2124 0.447442 12.164 0.350698 12.0915 0.266047C12.0189 0.181395 11.9342 0.12093 11.8254 0.0725581C11.7287 0.024186 11.6198 0 11.511 0C11.4022 0 11.2933 0.024186 11.1966 0.0725581C11.0998 0.12093 11.0031 0.181395 10.9305 0.266047C10.8701 0.362791 10.8096 0.459535 10.7854 0.556279C10.7491 0.665116 10.737 0.773953 10.7612 0.882791L10.7491 2.55163C10.0356 2.62419 9.33425 2.75721 8.64495 2.96279L8.65704 0.882791C8.66913 0.773953 8.65704 0.665116 8.63285 0.556279C8.59657 0.447442 8.5482 0.350698 8.47564 0.266047C8.40308 0.181395 8.31843 0.12093 8.2096 0.0725581C8.11285 0.024186 8.00401 0 7.89518 0C7.78634 0 7.6775 0.024186 7.58076 0.0725581C7.48401 0.12093 7.38727 0.181395 7.31471 0.266047C7.24215 0.350698 7.18169 0.447442 7.1575 0.544186C7.12122 0.653023 7.10913 0.76186 7.13332 0.870698L7.09704 3.53116C4.66634 4.61953 2.67099 6.50605 1.46169 8.87628C0.252389 11.2344 -0.134588 13.9553 0.397505 16.5674C0.929598 19.1795 2.33239 21.5377 4.37611 23.2428C6.41983 24.9479 8.99564 25.9153 11.644 25.9637L20.2301 26C20.4961 26 20.7138 25.7823 20.7138 25.5163V21.1749C20.7138 21.0177 20.6533 20.8726 20.5324 20.7758ZM11.8133 23.8716C9.69704 23.8595 7.64122 23.146 5.97239 21.8642C4.30355 20.5581 3.10634 18.7442 2.56216 16.7005C2.01797 14.6567 2.17518 12.48 2.98541 10.533C3.79564 8.57395 5.23471 6.9414 7.07285 5.8893L7.06076 9.04558C7.04867 9.15442 7.06076 9.26326 7.08495 9.37209C7.12122 9.48093 7.1696 9.57767 7.24215 9.66233C7.31471 9.74698 7.39936 9.80744 7.5082 9.85581C7.60495 9.90419 7.71378 9.92837 7.82262 9.92837C7.93146 9.92837 8.04029 9.90419 8.13704 9.85581C8.23378 9.80744 8.33053 9.74698 8.40308 9.66233C8.47564 9.57767 8.53611 9.48093 8.56029 9.38419C8.59657 9.27535 8.60867 9.16651 8.58448 9.05767L8.59657 5.17581C9.64867 4.78884 10.7733 4.60744 11.898 4.60744C13.978 4.60744 15.9975 5.29674 17.6422 6.54233C17.7631 6.63907 17.7752 6.80837 17.6663 6.91721L13.1677 11.0409C12.7566 10.8716 12.3091 10.7749 11.8738 10.7749C11.378 10.7749 10.8942 10.8716 10.4347 11.0772C9.97518 11.2828 9.57611 11.5851 9.26169 11.96C8.93518 12.3349 8.69332 12.7823 8.5482 13.2419C8.40308 13.7256 8.36681 14.2214 8.43936 14.7051C8.51192 15.2009 8.68122 15.6726 8.94727 16.0837C9.21332 16.507 9.57611 16.8577 9.97518 17.1358C10.3984 17.4019 10.8701 17.5833 11.3538 17.6558C11.8496 17.7284 12.3454 17.6921 12.817 17.547L18.5612 21.9126C18.6217 21.9609 18.658 22.0335 18.658 22.106L18.6459 23.6419C18.6459 23.7749 18.537 23.8837 18.404 23.8837L11.8133 23.8716ZM13.2161 14.2456C13.2161 14.5116 13.1315 14.7777 12.9863 15.0074C12.8291 15.2372 12.6235 15.4065 12.3696 15.5153C12.1156 15.6242 11.8375 15.6484 11.5835 15.5879C11.3296 15.5274 11.0756 15.4065 10.8822 15.213C10.6887 15.0195 10.5556 14.7777 10.5073 14.5116C10.4589 14.2456 10.4831 13.9674 10.5919 13.7256C10.7008 13.4716 10.8701 13.266 11.0998 13.1088C11.3296 12.9637 11.5956 12.8791 11.8617 12.8791C12.2245 12.8791 12.5752 13.0242 12.817 13.2902C13.0831 13.5321 13.2161 13.8707 13.2161 14.2456Z" fill="#AA8BFC"/>
</g>
</svg>
