<svg width="359" height="194" viewBox="0 0 359 194" fill="none" xmlns="http://www.w3.org/2000/svg">
<path d="M38.7011 100.74H18.8644L0 189.616H18.8644C30.7275 189.616 38.1177 183.393 40.8404 170.946L51.7312 119.41C54.4538 106.963 49.9809 100.74 38.7011 100.74ZM38.8956 119.41L28.0048 170.946C27.0324 175.03 24.8932 176.975 21.1981 176.975H15.5582L29.1717 113.381H34.8116C38.3122 113.381 39.868 115.325 38.8956 119.41Z" fill="#6F3FF5"/>
<path d="M87.7095 189.616L93.3494 100.74H75.8464L43.563 189.616H56.593L80.1249 121.16L74.6795 189.616H87.7095Z" fill="#6F3FF5"/>
<path d="M128.161 152.276L126.994 100.74H114.159L95.2944 189.616H107.741L118.243 139.635L119.41 189.616H132.245L151.11 100.74H139.246L128.161 152.276Z" fill="#6F3FF5"/>
<path d="M180.67 99.3782C168.418 99.3782 161.028 105.601 158.305 118.048L146.831 172.502C144.108 184.948 148.97 191.172 161.222 191.172C173.474 191.172 181.059 184.948 183.587 172.502L186.115 160.444H173.28L170.752 172.502C169.974 176.586 167.64 178.531 163.945 178.531C160.25 178.531 158.888 176.586 159.666 172.502L171.141 118.048C171.919 113.964 174.252 112.019 177.947 112.019C181.642 112.019 183.198 113.964 182.226 118.048L180.281 126.8H193.117L195.061 118.048C197.784 105.601 192.922 99.3782 180.67 99.3782Z" fill="#6F3FF5"/>
<path d="M239.791 113.381L242.514 100.74H209.258L190.199 189.616H223.649L226.178 176.975H205.757L213.731 139.635H231.234L233.957 126.994H216.454L219.371 113.381H239.791Z" fill="#6F3FF5"/>
<path d="M354.519 131.467C354.13 131.273 350.24 130.106 347.323 130.106C344.989 130.106 343.239 130.884 342.072 132.439L341.683 133.023L341.489 133.606C341.294 134.579 340.322 140.024 340.127 141.385C339.933 143.136 340.322 145.081 341.489 146.247C342.267 147.22 343.433 147.803 344.6 147.803C344.795 147.803 344.795 147.803 344.989 147.803C344.989 148.192 345.184 148.387 345.184 148.776C345.962 150.915 347.906 152.082 350.24 152.082C350.629 152.082 351.213 152.082 351.796 151.887C353.741 151.498 357.825 150.137 358.214 146.636C358.408 145.469 358.797 138.274 356.658 133.412L356.075 131.856L354.519 131.467ZM354.713 146.247C354.519 147.414 352.574 148.192 351.213 148.387C350.824 148.387 350.629 148.387 350.24 148.387C349.462 148.387 348.684 148.192 348.49 147.414C348.101 146.442 347.518 140.413 347.129 140.413C346.74 140.413 345.184 144.303 344.6 144.303C344.017 144.303 343.433 143.136 343.628 141.774C343.822 140.413 344.989 134.384 344.989 134.384C345.378 133.801 346.156 133.606 347.129 133.606C349.657 133.606 353.352 134.773 353.352 134.773C355.102 138.663 354.908 145.081 354.713 146.247Z" fill="#6F3FF5"/>
<path d="M353.547 180.476C337.21 154.415 326.903 133.606 326.903 127.577L327.681 101.128C330.209 102.295 333.126 103.851 335.071 105.407C336.044 107.741 338.183 116.687 339.739 124.271L339.933 125.438L340.711 126.216C343.045 128.355 346.74 128.744 348.685 128.744C350.046 128.744 352.38 128.55 354.519 127.577L356.853 126.411L356.464 123.882C355.491 115.52 352.574 95.6831 349.463 91.599C346.156 87.515 337.405 83.6254 327.098 79.3469C324.375 78.1801 322.236 77.2077 321.069 76.8187L320.291 76.4297H319.319C319.319 76.4297 316.985 76.4297 313.873 76.4297C300.26 76.4297 293.453 75.8463 291.703 75.2629C290.73 74.8739 287.035 71.1788 281.395 63.2052C278.673 59.5102 273.616 46.0912 272.06 41.2292L270.505 36.9507L266.615 39.4789C264.087 41.0347 261.753 42.0071 259.808 42.0071H255.53L256.308 46.4801C256.502 47.258 261.753 67.8727 269.532 79.5414C271.088 81.8751 274.005 84.2089 276.922 86.7371C279.062 88.4874 281.395 90.6267 282.757 92.1825L285.285 126.216C284.507 127.577 281.979 131.273 280.034 133.995C273.811 142.552 269.338 148.97 268.949 153.249C267.976 160.833 265.643 173.474 264.67 178.531C258.641 179.309 256.697 180.476 255.53 181.642C251.835 185.338 252.418 189.422 252.613 190.005L253.196 192.922H256.113L281.979 192.533H285.479V188.838V182.809C285.479 182.226 285.285 181.253 284.507 180.281C285.285 175.419 287.424 164.528 289.952 158.305C290.73 156.555 297.537 149.942 304.344 143.914C310.373 152.082 326.32 174.252 330.404 184.949C329.431 187.282 329.237 189.422 329.237 189.616L329.042 193.311H332.737H354.13H357.631V189.811C358.409 186.893 357.047 183.198 353.547 180.476ZM333.321 189.811C333.321 189.811 333.515 187.477 334.877 185.143C330.793 172.307 305.511 138.663 305.511 138.663C305.511 138.663 288.785 152.665 287.23 156.749C284.118 164.723 281.59 179.114 281.201 181.642C282.368 182.031 282.368 182.42 282.368 182.42V188.838L256.502 189.227C256.502 189.227 255.919 186.699 258.447 184.171C259.808 182.809 264.087 182.226 268.365 181.837C268.365 181.642 268.171 181.642 268.171 181.642C268.171 181.642 271.866 163.556 273.033 153.832C273.811 147.414 289.369 129.522 289.563 126.8L286.841 91.0156C284.118 86.9316 275.561 81.4862 273.033 77.5966C265.448 66.3169 260.392 45.5077 260.392 45.5077H260.586C263.503 45.5077 266.809 44.1464 269.338 42.5905C269.338 42.5905 275.561 60.4825 279.256 65.539C282.368 69.8175 288.591 77.9856 291.508 78.7635C295.203 79.9304 307.455 80.1248 314.651 80.1248C317.957 80.1248 320.096 80.1248 320.096 80.1248C324.375 82.4586 343.239 89.0708 347.323 94.1273C350.241 97.8223 353.547 124.466 353.547 124.466C352.574 125.049 350.824 125.244 349.268 125.244C347.129 125.244 344.795 124.66 343.628 123.688C343.628 123.688 339.739 104.435 338.183 103.073C334.293 99.9616 325.542 96.072 324.764 96.072L323.792 127.772C323.597 138.079 344.601 172.307 351.213 183.198C354.325 185.337 355.102 188.449 355.102 190.005L333.321 189.811Z" fill="#6F3FF5"/>
<path d="M254.168 36.3674L254.946 36.7563C255.335 36.9508 258.058 38.1177 260.975 38.1177C265.059 38.1177 267.976 35.395 267.976 31.311V30.7275L267.782 30.1441C265.059 20.6147 260.392 4.27852 258.836 1.94478C258.058 0.777912 256.891 0 255.53 0C252.613 0 251.057 3.11165 250.862 5.05643C250.668 7.19569 252.029 12.0576 253.196 16.1417C251.64 16.9196 250.279 17.892 249.501 18.6699C245.222 23.9208 252.613 34.0337 253.585 35.2005L254.168 36.3674ZM252.224 21.3926C253.001 20.6147 255.919 19.0588 257.669 18.6699C257.669 18.6699 254.168 7.9736 254.363 5.63986C254.363 4.86195 255.141 3.88956 255.53 3.88956C255.724 3.88956 255.724 3.88956 255.919 4.08404C257.28 6.2233 264.476 31.311 264.476 31.311C264.476 33.8392 262.725 34.6171 260.975 34.6171C258.836 34.6171 256.502 33.6447 256.502 33.6447C253.585 29.9496 250.473 23.7263 252.224 21.3926Z" fill="#6F3FF5"/>
<path d="M287.618 58.5377H289.758H291.314V65.15C291.314 68.6506 293.647 70.9843 297.342 70.9843H317.957C322.041 70.9843 324.18 68.0672 324.18 65.3445V55.2316C325.153 55.4261 326.125 55.6206 327.098 55.6206C332.348 55.6206 334.682 48.2304 334.682 44.3408C334.682 38.312 332.348 35.3948 330.015 34.228C329.431 19.6421 320.68 9.91821 308.039 9.91821C292.286 9.91821 287.035 26.0599 287.035 33.2556H287.23C284.118 33.839 281.201 36.3672 281.201 40.0623V52.3144C281.201 55.4261 283.34 58.5377 287.618 58.5377ZM320.485 65.5389C320.485 66.3169 319.902 67.4837 317.763 67.4837H297.148C295.398 67.4837 294.62 66.7058 294.62 65.15V58.5377H295.398C307.455 58.5377 309.983 58.5377 310.761 58.3433C314.845 57.9543 316.985 55.2316 316.79 50.3697V47.8414C316.79 44.7298 316.596 41.2292 316.401 39.6734C316.012 35.5893 313.095 33.0611 308.817 33.0611H296.953C298.12 29.1715 300.843 23.7262 307.844 23.7262C315.04 23.7262 319.124 27.8102 320.291 35.5893C319.124 36.9507 318.346 38.5065 318.346 40.6458C318.346 42.5905 318.54 48.8138 319.513 51.1476C319.707 51.9255 320.096 52.5089 320.68 53.0924V65.5389H320.485ZM331.376 44.3408C331.376 47.4525 329.431 52.3144 327.098 52.3144C324.764 52.3144 323.208 51.9255 322.625 50.1752C322.041 48.4249 321.652 42.9795 321.652 40.6458C321.652 38.312 323.791 36.3672 325.347 36.3672C330.598 36.5617 331.376 41.2292 331.376 44.3408ZM308.039 13.6133C318.54 13.6133 325.542 21.1979 326.32 33.2556C325.931 33.2556 325.736 33.2556 325.347 33.2556C324.764 33.2556 324.18 33.4501 323.402 33.6445C321.652 25.0875 316.207 20.42 307.844 20.42C300.648 20.42 295.398 25.0875 293.258 33.2556H290.341C290.536 27.6157 294.814 13.6133 308.039 13.6133ZM284.507 40.2568C284.507 37.9231 286.646 36.5617 288.396 36.5617C290.147 36.5617 309.011 36.5617 309.011 36.5617C311.928 36.5617 312.901 38.312 313.095 40.0623C313.29 42.0071 313.29 47.4525 313.484 50.5641C313.484 53.6758 312.901 54.8427 310.567 55.0371C309.206 55.2316 301.621 55.2316 295.398 55.2316C291.897 55.2316 288.591 55.2316 287.424 55.2316C285.285 55.2316 284.312 53.8703 284.312 52.7034C284.507 51.342 284.507 42.5905 284.507 40.2568Z" fill="#6F3FF5"/>
<path d="M294.814 58.7324H295.592C307.65 58.7324 310.178 58.7324 310.956 58.5379C315.04 58.1489 317.179 55.4262 316.985 50.5643V48.0361C316.985 44.9244 316.79 41.4238 316.596 39.868C316.207 35.784 313.29 33.2557 309.011 33.2557H301.815H296.954H293.258H290.341H286.841V33.4502H287.035C283.924 34.0336 281.006 36.5619 281.006 40.2569V52.5091C281.006 55.4262 283.34 58.5379 287.424 58.5379H289.563H291.119H294.814V58.7324ZM287.619 55.2317C285.479 55.2317 284.507 53.8704 284.507 52.7035C284.507 51.5367 284.507 42.5907 284.507 40.4514C284.507 38.1177 286.646 36.7563 288.396 36.7563C290.147 36.7563 309.011 36.7563 309.011 36.7563C311.928 36.7563 312.901 38.5066 313.095 40.2569C313.29 42.2017 313.29 47.6471 313.484 50.7588C313.484 53.8704 312.901 55.0373 310.567 55.2317C309.206 55.4262 301.621 55.4262 295.398 55.4262C291.897 55.2317 288.785 55.2317 287.619 55.2317Z" fill="#F35891"/>
<path d="M51.5367 81.0973C51.5367 81.6808 50.7588 82.0697 49.0085 82.6532C47.2582 83.0421 45.5079 83.4311 43.7576 83.6256C42.0073 83.82 40.4515 83.82 39.4791 83.82C38.3122 83.82 37.3398 83.82 36.5619 83.82C35.784 83.82 34.6171 83.6256 33.4503 83.4311C32.2834 83.2366 30.9221 82.8476 29.7552 82.4587C28.5883 82.0697 27.4215 81.2918 26.2546 80.7084L25.0877 79.9305C24.6988 79.736 24.5043 79.5415 24.1153 79.1526L23.1429 77.9857C20.6147 75.263 18.8644 71.9569 17.6976 68.2618C16.7252 64.5667 16.7252 61.4551 17.6976 58.9269L18.0865 58.1489V57.76C19.8368 54.4539 23.5319 52.7036 29.7552 52.7036C30.7276 52.7036 31.7 52.7036 32.6724 52.898C33.8392 53.0925 35.0061 53.287 36.173 53.6759C37.3398 54.0649 38.7012 54.4539 39.8681 55.2318C41.0349 55.8152 42.2018 56.5931 42.9797 57.5655C43.3687 57.9545 43.7576 58.3434 44.1466 58.9269C44.5355 59.5103 44.73 60.0937 45.119 60.8716C45.5079 61.6495 45.7024 62.233 45.8969 62.6219C46.0914 63.2054 45.7024 63.3998 44.73 63.3998H42.9797C42.5907 63.3998 41.8128 63.3998 40.4515 63.3998C39.0901 63.3998 38.1178 63.3998 37.3398 63.3998H35.0061C34.8116 63.3998 34.6171 63.0109 34.2282 62.6219C34.0337 62.233 33.8392 62.0385 33.6448 62.0385C33.2558 61.4551 32.4779 61.0661 31.7 61.0661C31.1165 61.0661 30.5331 61.2606 30.3386 61.4551C29.9497 61.6495 29.7552 62.0385 29.5607 62.4275C29.3662 62.8164 29.3662 63.2054 29.3662 63.7888C29.3662 64.3722 29.3662 64.9557 29.5607 65.3446C29.7552 65.7336 29.7552 66.317 29.9497 66.9004C29.9497 67.0949 30.1441 67.4839 30.1441 67.6784C30.3386 68.0673 30.3386 68.2618 30.3386 68.4563L30.7276 70.2066C30.9221 70.79 31.1165 71.179 31.1165 71.5679C31.1165 71.9569 31.5055 72.3458 31.7 72.9293C31.8945 73.5127 32.2834 73.9017 32.6724 74.0961C33.0613 74.2906 33.4503 74.6796 34.0337 74.8741C34.6171 75.0685 35.2006 75.263 35.9785 75.263C37.3398 75.263 38.5067 75.0685 39.2846 74.8741L39.0901 73.9017C39.0901 73.7072 39.0901 73.7072 38.8957 73.5127C38.8957 73.3182 38.7012 73.1237 38.7012 73.1237V72.9293C38.7012 72.7348 38.7012 72.7348 38.7012 72.5403H37.9233C37.7288 72.5403 37.7288 72.5403 37.5343 72.5403C37.3398 72.5403 37.3398 72.5403 37.1454 72.5403H35.3951L34.4227 71.7624C34.4227 71.5679 34.2282 71.3734 34.2282 71.179L33.8392 69.8176C33.8392 69.6231 33.6448 69.4287 33.6448 69.0397C33.6448 68.6508 33.4503 68.4563 33.4503 68.0673L33.0613 67.2894C33.0613 67.2894 33.0613 67.2894 33.0613 67.0949C33.0613 66.9005 33.0613 66.9004 33.0613 66.9004V66.706C33.0613 66.5115 33.0613 66.317 33.0613 66.1225C33.0613 65.9281 33.2558 65.7336 33.4503 65.5391H35.5895C35.784 65.5391 35.9785 65.5391 36.3674 65.5391H38.3122C39.8681 65.5391 40.8404 65.5391 41.6184 65.5391H43.7576C45.8969 65.5391 47.4527 65.7336 47.8417 66.1225C48.2306 67.4839 48.814 69.6231 49.592 72.5403C50.3699 75.4575 50.9533 77.5967 51.3423 78.9581L51.5367 81.0973Z" fill="#F35891"/>
<path d="M60.8718 83.0421L52.5093 54.2593C52.5093 54.0649 52.5093 54.0649 52.7038 53.8704C52.8982 53.8704 53.0927 53.6759 53.0927 53.6759H64.9559L73.1239 82.2642C73.1239 82.6531 73.1239 82.8476 73.1239 82.8476C73.1239 83.0421 72.9295 83.0421 72.9295 83.0421H60.8718Z" fill="#F35891"/>
<path d="M74.2908 61.8443L71.957 53.8707H97.4337C97.6281 53.8707 97.8226 54.0651 98.0171 54.0651C98.2116 54.2596 98.2116 54.4541 98.2116 54.6486L100.156 61.6498C100.156 62.0387 100.156 62.2332 99.7674 62.2332H93.5441L99.3784 82.4589C99.3784 82.4589 99.3784 82.4589 99.3784 82.6534C99.3784 82.6534 99.3784 82.6534 99.3784 82.8479C99.3784 82.8479 99.3784 82.8479 99.184 82.8479H98.9895H97.6281C95.6834 82.8479 94.711 82.8479 94.711 82.6534C94.5165 82.6534 94.5165 82.6534 94.1275 82.6534C93.9331 82.6534 93.7386 82.6534 93.5441 82.6534H91.7938C91.4048 82.6534 91.0159 82.6534 90.4324 82.6534C89.849 82.6534 89.2656 82.6534 89.0711 82.6534H87.9042L86.9318 82.07L85.5705 77.4025C85.376 76.6246 84.7926 74.6798 84.2091 71.9571C83.6257 69.2344 82.8478 66.9007 82.4588 65.3449L82.2644 64.7614C82.2644 64.567 82.2644 64.3725 82.0699 64.178C81.8754 63.9835 81.8754 63.789 81.8754 63.5946C81.8754 63.4001 81.6809 63.2056 81.6809 62.8167C81.6809 62.4277 81.4865 62.2332 81.4865 62.0387H75.8466C75.4576 62.0387 75.2632 62.0387 74.8742 61.8443C74.4852 61.6498 74.4852 62.0387 74.2908 61.8443Z" fill="#F35891"/>
<path d="M127.772 83.82C125.244 83.82 123.105 83.4311 120.771 82.6532C118.632 81.8753 116.687 80.7084 114.937 79.1526C113.187 77.5967 112.02 76.0409 110.658 74.0961C109.491 72.1514 108.519 70.0121 107.936 67.6784V67.2894C107.936 67.0949 107.936 66.9004 107.741 66.5115C107.547 66.1225 107.547 65.9281 107.547 65.7336C107.547 65.5391 107.547 65.3446 107.352 64.9557C107.352 64.5667 107.352 64.3722 107.158 64.1778C106.963 63.9833 107.158 63.7888 107.158 63.3998C107.158 63.0109 107.158 62.8164 107.158 62.6219C107.158 62.4275 107.158 62.233 107.158 61.844C107.158 61.4551 107.158 61.2606 107.158 61.0661C107.158 60.8716 107.158 60.4827 107.352 60.2882C107.547 58.9268 108.13 57.76 108.908 56.5931C109.686 55.6207 110.464 54.8428 111.631 54.2594C112.603 53.6759 113.77 53.287 115.131 53.0925C116.493 52.898 117.66 52.7036 119.021 52.7036C120.771 52.7036 122.521 52.898 124.077 53.287C125.633 53.6759 126.994 54.0649 128.161 54.6483C129.328 55.2318 130.301 56.0097 131.273 56.7876C132.245 57.5655 133.023 58.5379 133.607 59.5103C134.19 60.4827 134.774 61.4551 135.163 62.4275L135.746 64.3722C135.746 64.5667 135.746 64.7612 135.552 64.7612C135.357 64.7612 135.163 64.9557 134.968 64.9557C134.774 64.9557 134.579 64.9557 134.19 64.9557H124.855L124.272 63.0109C124.077 62.4275 123.688 62.0385 123.299 61.6495C122.91 61.2606 122.327 61.0661 121.744 61.0661C121.355 61.0661 120.966 61.0661 120.577 61.2606C120.382 61.4551 119.993 61.6495 119.993 62.0385C119.799 62.4275 119.799 62.6219 119.799 63.2054C119.799 63.5943 119.799 63.9833 119.993 64.5667C119.993 64.9557 120.188 65.5391 120.382 65.9281C120.577 66.317 120.577 66.9004 120.771 67.2894C120.771 67.6784 120.966 67.8728 120.966 67.8728L121.744 70.401C121.938 70.79 121.938 71.179 122.133 71.3734C122.327 71.7624 122.521 72.1514 122.716 72.7348C123.105 73.3182 123.299 73.7072 123.883 74.0961C124.466 74.4851 124.855 74.6796 125.439 74.6796C126.022 74.6796 126.411 74.4851 126.411 73.9017C126.606 73.5127 126.606 72.9293 126.606 72.1514C126.606 71.3734 126.606 70.9845 126.8 70.79C127.383 70.79 128.356 70.79 129.523 70.79C130.69 70.79 131.662 70.79 132.245 70.79C132.634 70.79 133.218 70.79 133.996 70.79C134.774 70.79 135.357 70.79 135.746 70.79H137.302C137.691 70.79 138.08 71.179 138.274 71.7624L138.469 72.5403C139.052 75.4575 138.663 77.7912 137.302 79.5415C135.94 81.2918 133.996 82.4587 131.467 82.8476V83.0421C130.495 83.6256 129.328 83.82 127.772 83.82Z" fill="#F35891"/>
<path d="M143.525 68.0673L143.33 67.6784C142.942 65.3446 142.747 63.5943 142.747 62.6219C142.747 60.4827 143.136 58.5379 144.303 57.1765L144.692 56.5931C145.081 55.8152 146.053 55.0373 147.22 54.4539H147.998C149.165 53.8704 151.499 53.287 154.61 52.7036C155.388 52.7036 156.361 52.7036 157.333 52.898C158.305 53.0925 159.278 53.287 160.445 53.4815C161.611 53.6759 162.778 54.2594 163.945 54.8428C165.112 55.4262 166.279 56.2042 167.057 56.9821L167.251 57.5655C170.557 60.4827 172.697 63.9833 173.669 67.6784C174.836 71.9569 174.836 75.263 173.669 77.9857L173.086 79.1526C172.697 79.9305 172.113 80.7084 171.141 81.2918C170.363 81.8753 169.391 82.2642 168.418 82.6532C167.446 83.0421 166.279 83.2366 165.307 83.2366C164.334 83.4311 163.362 83.4311 162.195 83.4311C160.639 83.4311 159.278 83.2366 157.722 82.8477C156.166 82.4587 154.805 81.8753 153.443 81.0973C152.082 80.3194 150.721 79.347 149.554 78.3747C148.387 77.2078 147.22 75.8464 146.248 74.2906C145.275 72.7348 144.303 70.9845 143.719 69.0397L143.525 68.0673ZM155.583 68.2618C157.138 73.3182 158.694 76.0409 160.834 76.0409C161.417 76.0409 161.806 75.8464 162.195 75.652C162.584 75.4575 162.778 75.0685 162.973 74.6796C163.167 74.2906 163.167 73.9017 163.167 73.3182C163.167 72.9293 163.167 72.3458 162.973 71.7624C162.778 71.179 162.778 70.5955 162.584 70.0121C162.389 69.4287 162.389 68.8452 162.195 68.2618L162 67.4839C161.806 66.706 161.611 65.9281 161.222 65.3446C161.028 64.5667 160.639 63.9833 160.25 63.2054C159.861 62.4275 159.278 61.844 158.694 61.4551C158.111 61.0661 157.527 60.8716 156.944 60.8716C154.805 60.8716 154.221 63.0109 155.583 67.2894V68.2618Z" fill="#F35891"/>
<path d="M186.115 83.0421L177.753 54.2593C177.753 54.0649 177.753 54.0649 177.947 53.8704C178.142 53.8704 178.336 53.6759 178.336 53.6759H190.2L198.368 82.2642C198.368 82.6531 198.368 82.8476 198.368 82.8476C198.368 83.0421 198.173 83.0421 198.173 83.0421H186.115Z" fill="#F35891"/>
<path d="M228.707 53.8707C228.901 53.8707 229.096 54.2596 229.29 54.6486C229.484 55.0375 229.679 55.621 229.873 56.3989C230.068 56.9823 230.262 57.7602 230.457 58.3437C230.651 58.9271 230.846 59.5105 231.04 60.2884C231.235 60.8719 231.235 61.2608 231.429 61.4553C231.624 62.0387 231.818 62.8167 232.013 63.9835L232.596 66.3173C232.985 67.2897 233.374 68.651 233.763 70.5958C234.152 72.5406 234.735 73.7074 234.93 74.4853L237.264 82.4589C237.264 83.0424 237.069 83.2369 236.291 83.2369H224.039C223.845 83.2369 223.261 82.6534 222.483 81.4865C221.9 80.7086 221.122 79.3473 219.955 77.597C218.788 75.8467 217.816 74.2909 216.843 72.9295C216.066 71.5682 215.288 70.2068 214.51 69.04V68.8455V69.04C214.704 70.0123 215.093 71.3737 215.677 73.3185C216.26 75.2632 216.454 76.6246 216.843 77.597L218.205 82.07C218.399 82.4589 218.399 82.8479 218.399 83.0424C218.399 83.2368 218.205 83.4313 217.621 83.4313H208.675L207.508 82.4589C206.925 80.1252 205.758 76.2356 204.397 70.9847C203.035 65.7338 201.869 62.0387 201.285 59.5105L199.924 54.8431C199.924 54.2596 199.924 54.0651 200.313 54.0651C201.285 54.0651 202.841 54.0651 204.98 54.0651C207.12 54.0651 208.675 54.0651 209.842 54.0651H213.537C213.926 54.2596 213.926 54.2596 214.121 54.4541V54.6486C215.093 56.0099 216.065 57.5657 217.038 59.1216C218.01 60.6774 219.177 62.4277 220.538 64.567C221.9 66.7062 222.872 68.262 223.456 69.04L222.483 65.7338C221.316 60.6774 220.344 56.9823 219.761 54.8431C219.761 54.6486 219.761 54.4541 220.15 54.4541C220.538 54.4541 220.927 54.4541 221.705 54.4541H228.707V53.8707Z" fill="#F35891"/>
</svg>
