<svg width="24" height="42" viewBox="0 0 54 65" fill="none" xmlns="http://www.w3.org/2000/svg">
<g opacity="0.7">
<path d="M30.459 17.418L38.9354 25.8943" stroke="#AA8BFC" stroke-width="2" stroke-miterlimit="10"/>
<path d="M30.459 25.8943L38.9354 17.418" stroke="#AA8BFC" stroke-width="2" stroke-miterlimit="10"/>
<path d="M15.7217 17.4189L24.198 25.8953" stroke="#AA8BFC" stroke-width="2" stroke-miterlimit="10"/>
<path d="M15.7217 25.8953L24.198 17.4189" stroke="#AA8BFC" stroke-width="2" stroke-miterlimit="10"/>
<path d="M52.2229 26.1236C52.2229 12.2255 40.9974 1 27.0992 1C13.201 1 1.97559 12.2255 1.97559 26.1236L2.05195 35.3636C2.05195 35.3636 2.05195 57.8145 2.05195 60.1818C2.05195 62.5491 5.25922 63.8473 6.7865 63.8473C9.53559 63.8473 11.9029 62.6255 11.9029 60.4873C11.9029 60.4873 11.9029 54.5309 11.9029 53.0036C11.9029 51.4764 13.6592 48.8036 16.9429 48.8036C20.2265 48.8036 21.9829 52.0109 21.9829 53.3855C21.9829 54.76 21.9829 59.4182 21.9829 60.4873C21.9829 61.5564 23.9683 63.9236 27.1756 63.9236C30.3829 63.9236 31.9865 62.32 31.9865 60.3345C31.9865 58.3491 31.9865 54.6836 31.9865 53.2327C31.9865 51.7818 34.0483 48.7273 36.8738 48.7273C39.6992 48.7273 42.2956 50.9418 42.2956 53.2327C42.2956 55.4473 42.2956 59.2655 42.2956 60.64C42.2956 62.0145 43.441 64 46.8774 64C50.3138 64 52.2229 62.2436 52.2229 60.4873V35.3636V26.1236Z" stroke="#AA8BFC" stroke-width="2" stroke-miterlimit="10"/>
<path d="M15.7217 33.8364H39.0126C39.0126 33.8364 39.0126 35.0582 39.0126 36.9673C39.0126 38.8764 38.0199 41.2437 35.2708 41.2437C31.9108 41.2437 31.0708 38.8764 31.0708 36.9673C31.0708 35.2873 31.0708 33.8364 31.0708 33.8364" stroke="#AA8BFC" stroke-width="2" stroke-miterlimit="10"/>
</g>
</svg>
