<svg width="294" height="214" viewBox="0 0 294 214" fill="none" xmlns="http://www.w3.org/2000/svg">
<path d="M32.0332 83.4681H15.6864L0 157.194H15.6864C25.5936 157.194 31.6204 151.993 33.8496 141.755L42.9312 99.072C45.0777 88.6694 41.4451 83.4681 32.0332 83.4681ZM32.2809 98.9894L23.1993 141.673C22.4563 144.975 20.5574 146.709 17.5027 146.709H12.8793L24.1075 93.9532H28.7308C31.7856 93.9532 33.024 95.6044 32.2809 98.9894Z" fill="#6F3FF5"/>
<path d="M72.6529 157.194L77.3588 83.4681H62.8282L36.1614 157.194H46.8942L66.4609 100.393L61.9201 157.194H72.6529Z" fill="#6F3FF5"/>
<path d="M106.337 126.234L105.346 83.4681H94.6961L79.0098 157.194H89.2472L98.0811 115.749L98.9067 157.194H109.557L125.243 83.4681H115.419L106.337 126.234Z" fill="#6F3FF5"/>
<path d="M149.764 82.3124C139.609 82.3124 133.417 87.5137 131.188 97.8336L121.611 142.911C119.382 153.231 123.427 158.35 133.582 158.35C143.737 158.35 150.011 153.231 152.158 142.911L154.222 133.004H143.654L141.59 142.911C140.93 146.214 139.031 147.865 135.894 147.948H135.811C132.756 147.948 131.6 146.296 132.261 142.911L141.838 97.8336C142.498 94.5312 144.397 92.7975 147.535 92.7975C150.672 92.7975 151.828 94.4487 151.167 97.8336L149.599 105.099H160.249L161.817 97.8336C163.964 87.5137 159.919 82.3124 149.764 82.3124Z" fill="#6F3FF5"/>
<path d="M198.804 93.9532L201.033 83.4681H173.458L157.772 157.194H185.347L187.576 146.709H170.651L177.174 115.749H191.787L194.016 105.264H179.485L181.879 93.9532H198.804Z" fill="#6F3FF5"/>
<path d="M290.033 108.897C289.703 108.814 286.483 107.741 284.006 107.741C282.025 107.741 280.539 108.401 279.713 109.722L279.383 110.218L279.3 110.795C279.135 111.704 278.227 116.079 278.144 117.235C277.979 118.721 278.392 120.207 279.218 121.281C279.878 122.106 280.786 122.519 281.777 122.602C281.859 122.602 282.025 122.602 282.107 122.602C282.19 122.849 282.272 123.097 282.355 123.345C283.015 125.078 284.584 126.069 286.648 126.069C287.061 126.069 287.474 126.069 287.886 125.986C289.538 125.739 292.84 124.5 293.253 121.611C293.418 120.62 293.666 114.676 291.932 110.63L291.436 109.392L290.033 108.897ZM290.198 121.115C290.033 122.024 288.382 122.767 287.308 122.932C287.061 123.014 286.731 123.014 286.483 123.014C285.822 123.014 285.244 122.849 284.997 122.189C284.667 121.363 284.254 116.41 283.923 116.41C283.593 116.41 282.355 119.547 281.859 119.547C281.364 119.547 280.869 118.556 280.951 117.483C281.116 116.41 282.107 111.291 282.107 111.291C282.355 110.878 283.098 110.713 283.923 110.713C285.987 110.713 289.042 111.704 289.042 111.704C290.528 114.923 290.281 120.207 290.198 121.115Z" fill="#6F3FF5"/>
<path d="M289.207 149.516C275.75 127.885 267.081 110.713 267.164 105.759L267.824 83.7983C269.888 84.789 272.365 86.1099 273.934 87.2658C274.759 89.1647 276.576 96.595 277.814 102.87L277.979 103.778L278.64 104.438C280.539 106.255 283.593 106.585 285.327 106.585C286.4 106.585 288.382 106.502 290.116 105.677L292.097 104.768L291.849 102.622C291.024 95.6869 288.712 79.2575 286.07 75.9551C283.346 72.5701 276.08 69.3503 267.577 65.7176C265.348 64.8095 263.449 63.9839 262.623 63.5711L261.963 63.2408H261.22C261.22 63.2408 259.321 63.2408 256.679 63.2408C245.368 63.2408 239.754 62.7455 238.351 62.2501C237.525 61.8373 234.553 58.8652 229.764 52.3429C227.535 49.2057 223.325 38.1426 221.921 34.0972L220.683 30.5471L217.545 32.6111C215.481 33.9321 213.5 34.6751 211.931 34.6751H208.051L208.794 38.3077C208.959 39.0508 213.252 56.0581 219.775 65.8002C221.096 67.6991 223.407 69.7631 225.967 71.8271C227.783 73.3132 229.764 74.9644 230.838 76.2853L232.984 104.521C232.406 105.677 230.26 108.731 228.608 110.96C223.49 118.061 219.775 123.427 219.362 126.977C218.619 133.169 216.637 143.654 215.812 147.947C210.858 148.525 209.207 149.516 208.299 150.424C205.244 153.479 205.822 156.946 205.905 157.277L206.4 159.671H208.877L230.425 159.423H233.314V156.534V151.497C233.314 151.085 233.149 150.259 232.571 149.433C233.232 145.305 234.966 136.389 237.03 131.105C237.69 129.619 243.387 124.17 249.001 119.216C253.954 125.904 267.247 144.397 270.631 153.149C269.806 155.13 269.723 156.781 269.641 157.029L269.476 160.166H272.613L290.446 160.084H293.418V157.111C293.253 154.882 292.18 151.745 289.207 149.516ZM272.448 157.277C272.448 157.277 272.53 155.295 273.686 153.479C270.301 142.746 249.331 115.006 249.331 115.006C249.331 115.006 235.461 126.729 234.14 130.032C231.498 136.637 229.517 148.525 229.186 150.754C230.177 151.085 230.177 151.497 230.177 151.497V156.534L208.629 156.781C208.629 156.781 208.216 154.635 210.28 152.571C211.353 151.497 214.904 150.919 218.454 150.672C218.371 150.589 218.289 150.507 218.206 150.424C218.206 150.424 221.178 135.481 222.169 127.307C222.829 122.024 235.709 107.163 235.791 104.851L233.645 75.212C231.333 71.8271 224.315 67.3688 222.169 64.149C215.894 54.7372 211.601 37.6473 211.601 37.6473C211.684 37.6473 211.766 37.6473 211.766 37.6473C214.243 37.6473 216.885 36.4914 218.949 35.1705C218.949 35.1705 224.15 50.0313 227.122 54.1593C229.682 57.6268 234.883 64.3967 237.195 65.1397C240.167 66.1304 250.404 66.213 256.431 66.213C259.156 66.213 261.055 66.213 261.055 66.213C264.605 68.1119 280.208 73.5608 283.593 77.8539C285.988 80.8261 288.795 103.035 288.795 103.035C287.887 103.448 286.648 103.695 285.245 103.695C283.428 103.695 281.529 103.282 280.621 102.374C280.621 102.374 277.401 86.3576 275.998 85.2843C272.778 82.725 265.513 79.5051 264.935 79.5051H264.852L264.109 105.759C263.944 114.263 281.364 142.746 286.896 151.663C289.538 153.396 290.198 155.956 290.198 157.277H272.448Z" fill="#6F3FF5"/>
<path d="M206.813 30.0518L207.473 30.382C207.721 30.4646 210.115 31.4553 212.427 31.4553C215.894 31.4553 218.206 29.2262 218.288 25.8413V25.3459L218.123 24.9331C215.894 17.0073 211.931 3.46752 210.693 1.56864C210.115 0.577919 209.042 0 207.968 0C205.492 0 204.171 2.55936 204.006 4.21056C203.84 5.94431 204.996 10.0723 205.987 13.4573C204.749 14.0352 203.51 14.8608 202.932 15.6038C199.3 20.0621 205.492 28.4006 206.235 29.3088L206.813 30.0518ZM205.326 17.5853C205.904 16.8422 208.381 15.6038 209.785 15.3561C209.785 15.3561 206.895 6.52223 207.06 4.5408C207.143 3.96288 207.638 3.05472 208.051 3.05472C208.134 3.05472 208.216 3.13728 208.299 3.21984C209.454 5.03615 215.399 25.8413 215.399 25.8413C215.316 27.9878 213.995 28.5657 212.509 28.5657C210.693 28.5657 208.711 27.7401 208.711 27.7401C206.4 24.6854 203.758 19.4841 205.326 17.5853Z" fill="#6F3FF5"/>
<path d="M234.635 48.5452H236.369H237.607V54.0767C237.607 57.0489 239.589 58.9478 242.643 58.9478H259.816C263.201 58.9478 264.935 56.5535 264.935 54.3244V45.8207C265.678 45.9859 266.503 46.151 267.411 46.151C271.787 46.151 273.686 39.959 273.686 36.8217C273.686 31.7856 271.787 29.4739 269.806 28.4006C269.31 16.3469 262.21 8.25598 251.642 8.25598C238.598 8.25598 234.14 21.5481 234.14 27.6576H234.305C231.745 28.1529 229.351 30.2995 229.351 33.3542V43.5916C229.186 45.9033 231.085 48.5452 234.635 48.5452ZM261.962 54.2419C261.962 54.9023 261.467 55.893 259.733 55.893H242.561C241.157 55.893 240.497 55.3151 240.497 53.9942V48.4627H241.157C251.23 48.4627 253.211 48.3801 253.872 48.2975C257.339 48.0499 258.99 45.8207 258.908 41.6927L258.825 39.5462C258.743 36.9868 258.66 34.0972 258.577 32.7763C258.247 29.3913 255.853 27.2448 252.303 27.2448H242.396C243.386 24.0249 245.698 19.5667 251.395 19.5667C257.339 19.5667 260.807 22.8691 261.632 29.3913C260.641 30.4646 259.981 31.8681 259.981 33.5193C259.981 35.088 260.229 40.2892 260.889 42.2707C261.137 42.9311 261.385 43.4265 261.797 43.9219V54.2419H261.962ZM270.796 36.7392C270.796 39.3811 269.228 43.3439 267.329 43.3439C265.43 43.3439 264.109 42.9311 263.696 41.5276C263.201 40.1241 262.953 35.5833 262.953 33.6019C262.953 31.6204 264.769 30.1344 265.925 30.1344C270.218 30.1344 270.796 34.0972 270.796 36.7392ZM251.477 11.1456C260.146 11.1456 265.925 17.5027 266.668 27.4099C266.421 27.4099 266.173 27.3273 265.925 27.3273C265.43 27.3273 264.935 27.4924 264.357 27.6576C262.953 20.5574 258.412 16.6771 251.477 16.6771C245.533 16.6771 241.075 20.5574 239.424 27.3273H237.029C237.112 22.8691 240.579 11.1456 251.477 11.1456ZM232.076 33.2716C232.076 31.3728 233.809 30.2169 235.296 30.2169C236.782 30.2169 252.385 30.2169 252.385 30.2169C254.862 30.2169 255.688 31.6204 255.853 33.1891C256.018 34.7577 256.101 39.2985 256.183 41.8579C256.266 44.4172 255.605 45.4079 253.789 45.5731C252.633 45.6556 246.359 45.6556 241.322 45.6556C238.35 45.6556 235.708 45.6556 234.718 45.6556C232.984 45.6556 232.158 44.4998 232.158 43.5091C232.076 42.5183 232.076 35.1705 232.076 33.2716Z" fill="#6F3FF5"/>
<path d="M240.497 48.5453H241.157C251.23 48.5453 253.211 48.4627 253.872 48.3802C257.339 48.1325 258.99 45.9034 258.908 41.7754L258.825 39.6288C258.743 37.0695 258.66 34.1799 258.578 32.8589C258.247 29.474 255.853 27.3274 252.386 27.3274H246.441H242.396H239.424H237.029H234.057C234.057 27.41 234.057 27.4925 234.057 27.5751H234.222C231.663 28.0704 229.269 30.217 229.269 33.2717V43.5091C229.269 45.9034 231.168 48.4627 234.635 48.4627H236.369H237.607H240.497V48.5453ZM234.635 45.6557C232.901 45.6557 232.076 44.4999 232.076 43.5091C232.076 42.5184 232.076 35.1706 232.076 33.2717C232.076 31.3728 233.81 30.217 235.296 30.217C236.782 30.217 252.386 30.217 252.386 30.217C254.862 30.217 255.688 31.6205 255.853 33.1891C256.018 34.7578 256.101 39.2986 256.183 41.8579C256.266 44.4173 255.605 45.408 253.789 45.5731C252.633 45.6557 246.359 45.6557 241.323 45.6557C238.185 45.6557 235.626 45.6557 234.635 45.6557Z" fill="#F35891"/>
<path d="M42.7661 67.1212C42.7661 67.534 42.1056 67.9468 40.6195 68.3596C39.216 68.6898 37.7299 68.9375 36.2439 69.1026C34.7578 69.2677 33.5194 69.3503 32.6938 69.3503C31.7856 69.3503 30.96 69.3503 30.217 69.2677C29.474 69.1852 28.6484 69.1026 27.6576 68.9375C26.6669 68.7724 25.6762 68.5247 24.6029 68.1119C23.5296 67.6991 22.6215 67.2037 21.7133 66.6258L20.7226 65.9653C20.4749 65.8002 20.2272 65.6351 19.897 65.3048L19.0714 64.5618C16.9248 62.2501 15.4388 59.6082 14.6132 56.5535C13.705 53.4988 13.7876 50.9394 14.6957 48.8754L15.026 48.2975L14.9434 47.9673C16.3469 45.1602 19.5668 43.7567 24.5204 43.7567C25.2634 43.7567 26.089 43.8393 26.9146 43.9218C27.8228 44.087 28.8135 44.2521 29.8042 44.4998C30.8775 44.7474 31.8682 45.1602 32.8589 45.7381C33.8496 46.2335 34.7578 46.894 35.4183 47.5545C35.7485 47.8847 36.0787 48.2975 36.3264 48.7103C36.5741 49.1231 36.8218 49.701 37.152 50.3615C37.4823 51.022 37.7299 51.5173 37.8951 51.8476C37.9776 52.2604 37.6474 52.4255 36.9043 52.4255H35.4183C35.088 52.4255 34.345 52.4255 33.3543 52.3429C32.3636 52.2604 31.4554 52.2604 30.8775 52.2604H28.896C28.7309 52.1778 28.4832 52.0127 28.2356 51.6825C28.0704 51.4348 27.9053 51.2697 27.9053 51.2697C27.5751 50.7743 26.9972 50.5266 26.2541 50.5266C25.7588 50.5266 25.346 50.6092 25.0157 50.8569C24.6855 51.1045 24.5204 51.3522 24.3552 51.5999C24.2727 51.9301 24.1901 52.2604 24.1901 52.7557C24.1901 53.2511 24.2727 53.6639 24.3552 54.0767C24.4378 54.4895 24.5204 54.9023 24.6855 55.3977C24.768 55.5628 24.768 55.8105 24.9332 56.1407C25.0157 56.4709 25.0983 56.6361 25.0983 56.7186L25.5111 58.1221C25.6762 58.5349 25.7588 58.9477 25.9239 59.278C26.089 59.6082 26.2541 59.9385 26.5018 60.3513C26.7495 60.7641 26.9972 61.0943 27.3274 61.342C27.6576 61.5897 27.9879 61.8373 28.4832 62.0025C28.9786 62.1676 29.474 62.2501 30.0519 62.2501C31.2077 62.2501 32.1159 62.1676 32.7764 61.9199L32.5287 61.0943C32.5287 61.0117 32.4461 60.8466 32.3636 60.6815C32.281 60.5164 32.1984 60.5164 32.1984 60.4338C32.1984 60.4338 32.1984 60.3513 32.1984 60.2687C32.1984 60.1861 32.1984 60.1036 32.1159 60.021H31.4554C31.3728 60.021 31.2077 60.021 31.1252 60.021C30.96 60.021 30.8775 60.021 30.8775 60.021H29.3088L28.4832 59.3605C28.4007 59.278 28.4007 59.0303 28.3181 58.7826L27.9879 57.6268C27.9053 57.4617 27.9053 57.2965 27.8228 56.9663C27.7402 56.6361 27.6576 56.3884 27.6576 56.2233L27.4925 55.7279C27.4925 55.7279 27.4925 55.6453 27.4925 55.5628C27.4925 55.4802 27.4925 55.3977 27.41 55.3151L27.2448 55.2325C27.1623 54.9849 27.1623 54.8197 27.2448 54.7372C27.3274 54.5721 27.41 54.4895 27.5751 54.3244H29.3088C29.3914 54.3244 29.6391 54.3244 29.8868 54.4069H31.538C32.7764 54.4895 33.6845 54.4895 34.2624 54.4895H35.9962C37.8125 54.4895 38.9683 54.6546 39.3811 54.9849C39.7114 56.1407 40.2067 57.957 40.8672 60.2687C41.5277 62.6629 42.0231 64.3967 42.3533 65.5525L42.7661 67.1212Z" fill="#F35891"/>
<path d="M50.4443 68.8551L43.5918 44.9127C43.5918 44.8301 43.6744 44.7476 43.8395 44.665C44.0046 44.5824 44.0872 44.4999 44.0872 44.4999H53.9118L60.6817 68.1946C60.6817 68.4423 60.6817 68.6074 60.6817 68.6899C60.6817 68.7725 60.5991 68.8551 60.434 68.8551H50.4443Z" fill="#F35891"/>
<path d="M61.6721 51.1046L59.7732 44.5824H80.9085C81.0737 44.5824 81.2388 44.665 81.3213 44.8301C81.4039 44.9952 81.4865 45.0778 81.569 45.3254L83.2202 51.1872C83.3028 51.5174 83.1376 51.6 82.8074 51.6H77.6061L82.3946 68.3596V68.4422V68.5248C82.3946 68.5248 82.3946 68.5248 82.3946 68.6073V68.6899C82.3946 68.6899 82.3946 68.6899 82.3946 68.7724C82.3946 68.855 82.3946 68.855 82.3946 68.855C82.3946 68.855 82.3946 68.855 82.312 68.855C82.312 68.855 82.2295 68.855 82.2295 68.9376H82.1469C82.1469 68.9376 82.0644 68.9376 81.9818 68.9376H80.9085C79.3399 68.9376 78.5969 68.855 78.5143 68.7724C78.4317 68.7724 78.2666 68.7724 78.1015 68.7724C77.9364 68.7724 77.7713 68.7724 77.6887 68.7724H76.2026C75.9549 68.7724 75.5421 68.7724 75.0468 68.7724C74.5514 68.7724 74.1386 68.7724 73.8084 68.7724H72.8177L71.9095 68.2771L70.7537 64.3142C70.5885 63.5712 70.1757 62.0851 69.5978 59.7734C69.0199 57.4617 68.5245 55.6454 68.1943 54.3245L68.0292 53.8291C68.0292 53.7465 67.9466 53.5814 67.9466 53.3337C67.8641 53.1686 67.8641 53.0035 67.8641 52.8384C67.8641 52.7558 67.7815 52.5081 67.6164 52.1779C67.4513 51.8477 67.4513 51.6 67.4513 51.5174H62.9105C62.6628 51.5174 62.4151 51.4349 62.0849 51.3523C61.8372 51.5174 61.6721 51.3523 61.6721 51.1046Z" fill="#F35891"/>
<path d="M105.924 69.4329C103.86 69.4329 101.962 69.1027 100.145 68.4422C98.3289 67.7817 96.7603 66.791 95.3567 65.6352C93.9532 64.3968 92.7974 62.9933 91.8067 61.4246C90.8159 59.7734 89.9903 58.0397 89.495 56.1408L89.4124 55.8931C89.4124 55.8105 89.3299 55.5629 89.3299 55.2326C89.2473 54.9024 89.2473 54.6547 89.1647 54.5721C89.1647 54.4896 89.0822 54.2419 89.0822 53.9942C88.9996 53.664 88.9996 53.4989 88.9996 53.3337C88.9996 53.1686 88.9996 53.0035 88.9171 52.7558C88.9171 52.5081 88.8345 52.2605 88.9171 52.0953C88.9996 51.9302 88.9171 51.7651 88.9171 51.5174C88.9171 51.2697 88.9171 51.1046 88.9996 50.8569C88.9996 50.6918 89.0822 50.4441 89.0822 50.1965C89.3299 49.0406 89.7427 48.0499 90.3206 47.1418C90.8985 46.3162 91.6415 45.6557 92.5497 45.1603C93.4579 44.665 94.366 44.3347 95.3567 44.1696C96.3475 43.9219 97.4207 43.8394 98.6591 43.8394C100.145 43.8394 101.549 44.0045 102.87 44.2522C104.191 44.5824 105.264 44.9126 106.255 45.408C107.163 45.9034 108.071 46.4813 108.814 47.2243C109.557 47.9674 110.218 48.6278 110.713 49.4534C111.208 50.1965 111.621 51.0221 112.034 51.9302L112.447 53.4989C112.447 53.664 112.447 53.8291 112.282 53.9117C112.199 53.9942 112.034 54.0768 111.869 54.0768C111.704 54.0768 111.456 54.0768 111.208 54.0768H103.448L103.035 52.5081C102.87 52.0953 102.539 51.6825 102.209 51.3523C101.796 51.0221 101.384 50.8569 100.971 50.8569C100.558 50.8569 100.31 50.9395 100.063 51.1046C99.815 51.2697 99.6499 51.4349 99.5673 51.7651C99.4847 52.0128 99.4022 52.343 99.4022 52.6733C99.4022 53.0035 99.4022 53.4163 99.4847 53.7465C99.5673 54.1593 99.6499 54.4896 99.7324 54.9024C99.815 55.3152 99.8975 55.6454 100.063 56.0582C100.145 56.3059 100.145 56.471 100.228 56.5536L100.806 58.6176C100.888 58.9478 100.971 59.1955 101.136 59.5257C101.218 59.7734 101.466 60.1862 101.631 60.599C101.879 61.0118 102.209 61.4246 102.539 61.6723C102.87 61.92 103.282 62.0851 103.778 62.0851C104.273 62.0851 104.521 61.92 104.603 61.5072C104.686 61.0944 104.769 60.6816 104.769 60.1037C104.769 59.5257 104.851 59.1955 104.934 59.0304C105.429 59.0304 106.172 59.0304 107.163 59.0304C108.154 59.0304 108.897 59.0304 109.392 59.0304C109.722 59.0304 110.218 59.0304 110.878 59.0304C111.538 59.0304 112.034 59.0304 112.364 59.0304H113.685C114.098 59.0304 114.346 59.2781 114.511 59.7734L114.758 60.3513C115.171 62.7456 114.841 64.727 113.768 66.2131C112.694 67.6992 111.043 68.6073 108.897 69.0201V69.1027C108.154 69.3504 107.163 69.4329 105.924 69.4329Z" fill="#F35891"/>
<path d="M118.886 56.3884L118.721 55.9756C118.391 53.9941 118.226 52.5906 118.226 51.8476C118.143 50.0313 118.556 48.5452 119.464 47.3068L119.795 46.894C120.207 46.2335 120.868 45.6556 121.941 45.1602H122.602C123.675 44.6649 125.491 44.1695 128.051 43.7567C128.711 43.7567 129.454 43.8393 130.197 43.9218C130.94 44.0044 131.848 44.1695 132.839 44.4172C133.83 44.6649 134.82 44.9951 135.811 45.573C136.802 46.0684 137.71 46.7289 138.453 47.3893L138.618 47.8847C141.343 50.3615 143.076 53.1685 143.985 56.2233C144.975 59.6908 144.975 62.5804 144.067 64.7269L143.572 65.6351C143.242 66.2956 142.664 66.956 142.003 67.4514C141.343 67.9468 140.517 68.3596 139.691 68.6072C138.866 68.8549 137.958 69.02 137.132 69.1852C136.307 69.2677 135.481 69.3503 134.655 69.3503C133.417 69.3503 132.179 69.1852 130.94 68.9375C129.702 68.6898 128.546 68.1944 127.39 67.534C126.234 66.8735 125.161 66.1305 124.088 65.2223C123.097 64.3141 122.106 63.1583 121.281 61.9199C120.455 60.5989 119.712 59.1954 119.217 57.6268L118.886 56.3884ZM128.959 56.5535C130.197 60.8466 131.601 62.9932 133.252 62.9932C133.665 62.9932 134.077 62.9106 134.325 62.7455C134.573 62.5804 134.82 62.3327 134.903 62.0025C134.986 61.6722 135.068 61.2594 135.068 60.9292C135.068 60.5989 135.068 60.1036 134.986 59.5257C134.903 58.9477 134.82 58.5349 134.655 58.1221C134.49 57.7093 134.408 57.214 134.243 56.6361L134.077 55.9756C133.912 55.3151 133.665 54.7372 133.417 54.1593C133.169 53.5813 132.922 53.0034 132.509 52.4255C132.096 51.8476 131.766 51.3522 131.27 51.022C130.775 50.6917 130.28 50.5266 129.784 50.5266C127.968 50.5266 127.555 52.3429 128.628 55.893L128.959 56.5535Z" fill="#F35891"/>
<path d="M154.222 68.8551L147.369 44.9127C147.369 44.8301 147.452 44.7476 147.617 44.665C147.782 44.5824 147.865 44.4999 147.865 44.4999H157.689L164.459 68.1946C164.459 68.4423 164.459 68.6074 164.459 68.6899C164.459 68.7725 164.377 68.8551 164.212 68.8551H154.222Z" fill="#F35891"/>
<path d="M189.558 44.4998C189.723 44.5824 189.888 44.7475 190.053 45.1603C190.218 45.4905 190.383 45.9859 190.548 46.5638C190.713 47.1417 190.879 47.6371 191.044 48.1324C191.209 48.6278 191.291 49.1231 191.456 49.7011C191.622 50.1964 191.704 50.6092 191.704 50.6918C191.787 51.1871 192.034 51.8476 192.282 52.7558L192.86 54.6547C193.108 55.4803 193.438 56.6361 193.933 58.1222C194.429 59.6083 194.676 60.6815 194.924 61.4246L196.823 68.0294C196.905 68.4422 196.575 68.6073 195.997 68.6073H185.76C185.512 68.5247 185.099 68.0294 184.521 67.0386C184.109 66.3782 183.448 65.3049 182.457 63.9014C181.467 62.4153 180.641 61.1769 179.981 60.0211C179.238 58.9478 178.577 57.8745 177.999 56.8012V56.7187V56.8012C178.164 57.6268 178.495 58.7827 178.907 60.3513C179.32 61.9199 179.65 63.1583 179.816 63.9014L180.889 67.6166C180.971 67.9468 181.054 68.1945 180.971 68.3596C180.889 68.5247 180.724 68.6073 180.393 68.6898H172.88L171.89 67.8642C171.394 65.8828 170.486 62.663 169.33 58.3699C168.092 54.0767 167.266 50.9395 166.771 48.8755L165.615 44.9126C165.615 44.4998 165.698 44.2521 165.863 44.2521V44.3347C166.689 44.3347 168.009 44.3347 169.743 44.2521C171.477 44.1696 172.798 44.1696 173.706 44.1696H176.761C176.761 44.1696 176.761 44.1696 176.843 44.1696C177.091 44.2521 177.256 44.3347 177.256 44.4998L177.339 44.6649C178.082 45.8208 178.907 47.0592 179.733 48.2976C180.559 49.536 181.549 51.1046 182.623 52.8383C183.778 54.6547 184.521 55.8931 185.017 56.5535L184.274 53.8291C183.283 49.5359 182.54 46.5638 182.045 44.7475C181.962 44.5824 182.127 44.4172 182.375 44.4172C182.623 44.3347 183.035 44.3347 183.613 44.3347H189.558V44.4998Z" fill="#F35891"/>
<path d="M30.4645 205.492L28.318 213.17H26.5842L29.5564 202.602L35.253 183.118H37.8124L35.1705 202.602L33.6018 213.17H31.8681L33.0239 205.492H30.4645ZM33.3541 203.841L36.2437 184.687L30.9599 203.841H33.3541Z" fill="#AA8BFC"/>
<path d="M45.9859 183.201H47.6371L41.28 213.17H40.1241L41.5276 191.704L36.9868 213.17H35.4182L41.7753 183.118H42.9312L41.4451 204.666L45.9859 183.201Z" fill="#AA8BFC"/>
<path d="M58.8653 183.201H60.5165L54.1594 213.252H53.0035L54.407 191.787L49.8662 213.252H48.2976L54.6547 183.201H55.8106L54.3245 204.749L58.8653 183.201Z" fill="#AA8BFC"/>
<path d="M64.7269 197.318L64.3967 199.052H61.3419L58.2872 213.252H56.5535L62.9106 183.201H68.1119L67.7816 184.852H64.3967L61.7547 197.318H64.7269Z" fill="#AA8BFC"/>
<path d="M75.1295 183.201L74.7992 184.852H72.7352L66.7084 213.17H64.9746L71.0015 184.852H68.9375L69.2677 183.201H75.1295Z" fill="#AA8BFC"/>
<path d="M81.404 183.201H84.5413C86.0273 183.201 86.7704 183.861 86.7704 185.182C86.7704 185.512 86.7704 185.842 86.6878 186.173L81.5691 210.28C81.1563 212.262 80.0005 213.252 78.1016 213.252H75.0469L81.404 183.201ZM82.8075 184.852L77.1934 211.519H78.3493C79.1749 211.519 79.5877 211.106 79.7528 210.28L84.8715 186.173C84.8715 186.008 84.9541 185.842 84.9541 185.76C84.9541 185.182 84.6238 184.934 83.9633 184.934H82.8075V184.852Z" fill="#AA8BFC"/>
<path d="M86.2751 205.492L84.1285 213.17H82.3948L85.3669 202.602L91.0636 183.118H93.6229L90.981 202.602L89.4124 213.17H87.6786L88.8344 205.492H86.2751ZM89.1647 203.841L92.0543 184.687L86.7704 203.841H89.1647Z" fill="#AA8BFC"/>
<path d="M101.796 183.201H103.448L97.0905 213.252H95.9347L97.3382 191.787L92.7974 213.252H91.2288L97.5859 183.201H98.7417L97.2556 204.749L101.796 183.201Z" fill="#AA8BFC"/>
<path d="M107.988 192.778L109.474 185.843C109.474 185.677 109.557 185.512 109.557 185.43C109.557 184.852 109.227 184.604 108.566 184.604C107.741 184.604 107.328 185.017 107.163 185.843L101.879 210.528C101.879 210.693 101.796 210.858 101.796 210.941C101.796 211.519 102.127 211.766 102.787 211.766C103.613 211.766 104.108 211.354 104.273 210.528L105.759 203.675H107.493L106.007 210.528C105.594 212.509 104.438 213.5 102.457 213.5C100.888 213.5 100.062 212.84 100.062 211.519C100.062 211.188 100.063 210.941 100.145 210.528L105.429 185.843C105.842 183.861 106.998 182.87 108.979 182.87C110.63 182.87 111.373 183.531 111.373 184.852C111.373 185.099 111.373 185.43 111.291 185.843L109.805 192.778H107.988Z" fill="#AA8BFC"/>
<path d="M114.015 183.201H119.217L118.886 184.852H115.419L112.777 197.318H115.832L115.501 199.052H112.447L109.805 211.519H113.272L112.942 213.252H107.741L114.015 183.201Z" fill="#AA8BFC"/>
<path d="M125.573 210.528C125.161 212.509 124.005 213.5 122.023 213.5C120.455 213.5 119.629 212.84 119.629 211.519C119.629 211.188 119.629 210.941 119.712 210.528L124.996 185.843C125.408 183.861 126.564 182.87 128.546 182.87C130.197 182.87 130.94 183.531 130.94 184.852C130.94 185.099 130.94 185.43 130.857 185.843L125.573 210.528ZM129.124 185.843C129.124 185.677 129.206 185.512 129.206 185.43C129.206 184.852 128.876 184.604 128.215 184.604C127.39 184.604 126.977 185.017 126.812 185.843L121.528 210.528C121.528 210.693 121.445 210.858 121.445 210.941C121.445 211.519 121.776 211.766 122.436 211.766C123.262 211.766 123.757 211.354 123.922 210.528L129.124 185.843Z" fill="#AA8BFC"/>
<path d="M135.481 197.318L135.151 199.052H132.096L129.041 213.252H127.307L133.664 183.201H138.866L138.536 184.852H135.068L132.426 197.318H135.481Z" fill="#AA8BFC"/>
<path d="M142.581 197.318L142.251 199.052H139.196L136.141 213.252H134.407L140.765 183.201H145.966L145.636 184.852H142.168L139.526 197.318H142.581Z" fill="#AA8BFC"/>
<path d="M154.222 197.318L153.892 199.052H150.837L147.782 213.252H146.048L152.405 183.201H157.607L157.276 184.852H153.809L151.167 197.318H154.222Z" fill="#AA8BFC"/>
<path d="M159.423 210.528C159.01 212.509 157.854 213.5 155.873 213.5C154.304 213.5 153.479 212.84 153.479 211.519C153.479 211.188 153.479 210.941 153.561 210.528L158.845 185.843C159.258 183.861 160.414 182.87 162.395 182.87C164.046 182.87 164.789 183.531 164.789 184.852C164.789 185.099 164.789 185.43 164.707 185.843L159.423 210.528ZM162.891 185.843C162.891 185.677 162.973 185.512 162.973 185.43C162.973 184.852 162.643 184.604 161.982 184.604C161.157 184.604 160.744 185.017 160.579 185.843L155.295 210.528C155.295 210.693 155.213 210.858 155.213 210.941C155.213 211.519 155.543 211.766 156.203 211.766C157.029 211.766 157.524 211.354 157.689 210.528L162.891 185.843Z" fill="#AA8BFC"/>
<path d="M168.422 198.722L167.514 213.252H165.532L166.688 199.052H165.945L162.891 213.252H161.157L167.514 183.201H170.486C171.972 183.201 172.715 183.861 172.715 185.182C172.715 185.512 172.715 185.842 172.633 186.173L170.486 196.08C170.238 197.318 169.495 198.144 168.422 198.722ZM168.917 184.852L166.275 197.318H167.018C167.349 197.318 167.596 197.318 167.762 197.236C168.339 197.071 168.67 196.658 168.752 196.08L170.899 186.173C170.899 186.008 170.981 185.842 170.981 185.76C170.981 185.182 170.651 184.934 169.991 184.934H168.917V184.852Z" fill="#AA8BFC"/>
<path d="M180.063 183.201H183.035C184.521 183.201 185.264 183.861 185.264 185.182C185.264 185.512 185.264 185.842 185.182 186.173L183.035 196.08C182.705 197.566 181.879 198.474 180.476 198.887C180.146 198.97 179.65 199.052 179.072 199.052H178.495L175.44 213.252H173.706L180.063 183.201ZM181.384 184.852L178.742 197.318H179.485C179.815 197.318 180.063 197.318 180.228 197.236C180.806 197.071 181.136 196.658 181.219 196.08L183.366 186.173C183.366 186.008 183.448 185.842 183.448 185.76C183.448 185.182 183.118 184.934 182.457 184.934H181.384V184.852Z" fill="#AA8BFC"/>
<path d="M187.989 210.528C187.576 212.509 186.42 213.5 184.439 213.5C182.87 213.5 182.044 212.84 182.044 211.519C182.044 211.188 182.044 210.941 182.127 210.528L187.989 183.118H189.723L183.861 210.528C183.861 210.693 183.778 210.858 183.778 210.941C183.778 211.519 184.108 211.766 184.769 211.766C185.595 211.766 186.09 211.354 186.255 210.528L192.117 183.118H193.851L187.989 210.528Z" fill="#AA8BFC"/>
<path d="M196.245 183.201H199.382C200.868 183.201 201.611 183.861 201.611 185.182C201.611 185.512 201.611 185.842 201.529 186.173L199.382 196.08C199.217 196.988 198.556 197.649 197.401 198.226C198.144 198.639 198.474 199.217 198.474 199.878C198.474 200.043 198.474 200.208 198.391 200.373L196.245 210.28C195.832 212.262 194.676 213.252 192.777 213.252H189.888L196.245 183.201ZM194.594 199.052L191.952 211.519H193.108C193.933 211.519 194.346 211.106 194.511 210.28L196.658 200.373C196.658 200.208 196.74 200.125 196.74 200.043C196.74 199.63 196.575 199.382 196.245 199.217C196.08 199.135 195.915 199.135 195.502 199.135H194.594V199.052ZM197.648 184.852L195.006 197.318H195.915C196.245 197.318 196.492 197.318 196.658 197.236C197.153 197.071 197.483 196.658 197.648 196.08L199.795 186.173C199.795 186.008 199.877 185.842 199.877 185.76C199.877 185.182 199.547 184.934 198.887 184.934H197.648V184.852Z" fill="#AA8BFC"/>
<path d="M197.979 213.17L204.336 183.118H206.07L200.043 211.436H203.51L203.18 213.17H197.979Z" fill="#AA8BFC"/>
<path d="M211.436 183.201H213.17L206.812 213.252H205.079L211.436 183.201Z" fill="#AA8BFC"/>
<path d="M217.793 192.778L219.279 185.843C219.279 185.677 219.362 185.512 219.362 185.43C219.362 184.852 219.031 184.604 218.371 184.604C217.545 184.604 217.132 185.017 216.967 185.843L211.684 210.528C211.684 210.693 211.601 210.858 211.601 210.941C211.601 211.519 211.931 211.766 212.592 211.766C213.417 211.766 213.913 211.354 214.078 210.528L215.564 203.675H217.298L215.811 210.528C215.399 212.509 214.243 213.5 212.261 213.5C210.693 213.5 209.867 212.84 209.867 211.519C209.867 211.188 209.867 210.941 209.95 210.528L215.234 185.843C215.646 183.861 216.802 182.87 218.784 182.87C220.435 182.87 221.178 183.531 221.178 184.852C221.178 185.099 221.178 185.43 221.095 185.843L219.609 192.778H217.793Z" fill="#AA8BFC"/>
<path d="M231.25 197.318L228.443 210.528C228.031 212.509 226.875 213.5 224.893 213.5C223.325 213.5 222.499 212.84 222.499 211.519C222.499 211.188 222.499 210.941 222.582 210.528L227.865 185.843C228.278 183.861 229.434 182.87 231.415 182.87C233.067 182.87 233.81 183.531 233.81 184.852C233.81 185.099 233.81 185.43 233.727 185.843L232.241 192.778H230.507L231.993 185.843C231.993 185.677 232.076 185.512 232.076 185.43C232.076 184.852 231.746 184.604 231.085 184.604C230.26 184.604 229.847 185.017 229.682 185.843L224.398 210.528C224.398 210.693 224.315 210.858 224.315 210.941C224.315 211.519 224.646 211.766 225.306 211.766C226.132 211.766 226.627 211.354 226.792 210.528L229.269 199.052H228.278L228.608 197.318H231.25Z" fill="#AA8BFC"/>
<path d="M236.452 210.528C236.039 212.509 234.883 213.5 232.902 213.5C231.333 213.5 230.507 212.84 230.507 211.519C230.507 211.188 230.507 210.941 230.59 210.528L235.874 185.843C236.287 183.861 237.442 182.87 239.424 182.87C241.075 182.87 241.818 183.531 241.818 184.852C241.818 185.099 241.818 185.43 241.735 185.843L236.452 210.528ZM240.002 185.843C240.002 185.677 240.084 185.512 240.084 185.43C240.084 184.852 239.754 184.604 239.094 184.604C238.268 184.604 237.855 185.017 237.69 185.843L232.406 210.528C232.406 210.693 232.324 210.858 232.324 210.941C232.324 211.519 232.654 211.766 233.314 211.766C234.14 211.766 234.635 211.354 234.8 210.528L240.002 185.843Z" fill="#AA8BFC"/>
<path d="M244.46 210.528C244.047 212.509 242.891 213.5 240.91 213.5C239.341 213.5 238.515 212.84 238.515 211.519C238.515 211.188 238.515 210.941 238.598 210.528L243.882 185.843C244.295 183.861 245.45 182.87 247.432 182.87C249.083 182.87 249.826 183.531 249.826 184.852C249.826 185.099 249.826 185.43 249.744 185.843L244.46 210.528ZM248.01 185.843C248.01 185.677 248.092 185.512 248.092 185.43C248.092 184.852 247.762 184.604 247.102 184.604C246.276 184.604 245.863 185.017 245.698 185.843L240.414 210.528C240.414 210.693 240.332 210.858 240.332 210.941C240.332 211.519 240.662 211.766 241.322 211.766C242.148 211.766 242.643 211.354 242.809 210.528L248.01 185.843Z" fill="#AA8BFC"/>
<path d="M252.633 183.201H255.771C257.257 183.201 258 183.861 258 185.182C258 185.512 258 185.842 257.917 186.173L252.798 210.28C252.386 212.262 251.23 213.252 249.331 213.252H246.276L252.633 183.201ZM253.954 184.852L248.34 211.519H249.496C250.322 211.519 250.734 211.106 250.899 210.28L256.018 186.173C256.018 186.008 256.101 185.842 256.101 185.76C256.101 185.182 255.771 184.934 255.11 184.934H253.954V184.852Z" fill="#AA8BFC"/>
<path d="M258 203.675L256.514 210.528C256.514 210.693 256.431 210.858 256.431 210.941C256.431 211.519 256.761 211.766 257.422 211.766C258.247 211.766 258.66 211.354 258.825 210.528L260.807 201.281C260.807 201.199 260.807 201.116 260.807 200.951C260.807 200.208 260.311 199.382 259.238 198.474C258.33 197.731 257.917 196.823 257.917 195.832C257.917 195.585 257.917 195.337 258 195.089L260.064 185.843C260.476 183.861 261.632 182.87 263.614 182.87C265.265 182.87 266.008 183.531 266.008 184.852C266.008 185.099 266.008 185.43 265.925 185.843L264.439 192.778H262.706L264.192 185.843C264.192 185.677 264.274 185.512 264.274 185.43C264.274 184.852 263.944 184.604 263.283 184.604C262.458 184.604 262.045 185.017 261.88 185.843L259.898 195.172C259.898 195.254 259.898 195.337 259.898 195.419C259.898 196.163 260.394 196.906 261.467 197.814C262.375 198.557 262.788 199.382 262.788 200.373C262.788 200.621 262.788 200.868 262.706 201.116L260.724 210.528C260.311 212.509 259.155 213.5 257.174 213.5C255.523 213.5 254.78 212.84 254.78 211.436C254.78 211.188 254.78 210.858 254.862 210.445L256.348 203.593H258V203.675Z" fill="#AA8BFC"/>
<g opacity="0.5">
<path opacity="0.5" d="M292.262 182.623L293.17 183.118L285.822 197.731L293.583 213.087L292.675 213.5L284.667 197.731L292.262 182.623Z" fill="#AA8BFC"/>
</g>
<g opacity="0.5">
<path opacity="0.5" d="M281.034 182.623L281.942 183.118L274.594 197.731L282.355 213.087L281.447 213.5L273.438 197.731L281.034 182.623Z" fill="#AA8BFC"/>
</g>
<g opacity="0.5">
<path opacity="0.5" d="M1.40352 213.5L0.49536 213.087L7.84319 198.392L0 183.118L0.908159 182.623L8.99903 198.392L1.40352 213.5Z" fill="#AA8BFC"/>
</g>
<g opacity="0.5">
<path opacity="0.5" d="M12.6318 213.5L11.7236 213.087L19.0715 198.392L11.2283 183.118L12.1364 182.623L20.2273 198.392L12.6318 213.5Z" fill="#AA8BFC"/>
</g>
</svg>
