<svg width="313" height="140" viewBox="0 0 313 140" fill="none" xmlns="http://www.w3.org/2000/svg">
<path d="M8.44758 45.3267L4.16907 60.496H0.668457L6.5028 39.4924L17.7825 0.79126H22.8389L17.588 39.2979L14.4764 60.3015H10.9758L13.3095 45.1322H8.44758V45.3267ZM14.2819 41.8261L19.9218 3.90291L9.41997 41.8261H14.2819Z" fill="#AA8BFC"/>
<path d="M39.175 0.980774H42.4811L29.8401 60.4911H27.7008L30.4235 17.9004L21.283 60.4911H18.1714L30.8125 0.980774H33.1462L30.229 43.5715L39.175 0.980774Z" fill="#AA8BFC"/>
<path d="M64.8464 0.980774H68.1525L55.5115 60.4911H53.3722L56.0949 17.9004L46.9544 60.4911H43.8428L56.4838 0.980774H58.8176L55.9004 43.5715L64.8464 0.980774Z" fill="#AA8BFC"/>
<path d="M76.5147 28.9857L75.7368 32.4863H69.708L63.6792 60.6856H60.373L73.0141 1.17529H83.3215L82.5435 4.48142H75.5423L70.4859 28.9857H76.5147Z" fill="#AA8BFC"/>
<path d="M97.1295 0.980774L96.3516 4.2869H92.2676L80.4044 60.4911H76.9038L88.767 4.2869H84.6829L85.4608 0.980774H97.1295Z" fill="#AA8BFC"/>
<path d="M109.576 0.980774H115.799C118.717 0.980774 120.078 2.34212 120.078 4.87033C120.078 5.45377 120.078 6.23168 119.883 6.81511L109.771 54.6567C108.993 58.5463 106.659 60.4911 102.964 60.4911H96.9351L109.576 0.980774ZM112.299 4.2869L101.019 57.1849H103.353C104.909 57.1849 105.881 56.407 106.27 54.6567L116.383 6.81511C116.383 6.42616 116.383 6.23168 116.383 6.0372C116.383 4.87034 115.799 4.2869 114.438 4.2869H112.299Z" fill="#AA8BFC"/>
<path d="M119.3 45.3217L115.022 60.491H111.521L117.355 39.4874L128.635 0.786255H133.692L128.441 39.2929L125.329 60.2965H121.828L124.162 45.1272H119.3V45.3217ZM124.94 41.8211L130.58 3.8979L120.078 41.8211H124.94Z" fill="#AA8BFC"/>
<path d="M150.028 0.980774H153.334L140.693 60.4911H138.553L141.276 17.9004L132.136 60.4911H129.024L141.665 0.980774H143.999L141.082 43.5715L150.028 0.980774Z" fill="#AA8BFC"/>
<path d="M162.28 19.845L165.197 6.23151C165.197 5.84256 165.197 5.64808 165.197 5.4536C165.197 4.28673 164.613 3.7033 163.252 3.7033C161.696 3.7033 160.724 4.48121 160.335 6.23151L149.833 55.24C149.833 55.6289 149.833 55.8234 149.833 56.0179C149.833 57.1848 150.417 57.7682 151.778 57.7682C153.334 57.7682 154.306 56.9903 154.695 55.24L157.612 41.6265H161.113L158.196 55.24C157.418 59.1295 155.084 61.0743 151.194 61.0743C148.083 61.0743 146.333 59.713 146.333 56.9903C146.333 56.4069 146.332 55.8234 146.527 55.0455L157.029 6.03704C157.807 2.14748 160.14 0.202698 164.03 0.202698C167.142 0.202698 168.892 1.56404 168.892 4.28673C168.892 4.87017 168.892 5.4536 168.698 6.23151L165.78 19.845H162.28Z" fill="#AA8BFC"/>
<path d="M174.337 0.980774H184.645L183.867 4.2869H177.06L171.809 28.9856H177.838L177.06 32.4862H171.031L165.78 57.1849H172.782L172.004 60.4911H161.696L174.337 0.980774Z" fill="#AA8BFC"/>
<path d="M197.091 55.24C196.313 59.1295 193.98 61.0743 190.09 61.0743C186.978 61.0743 185.228 59.713 185.228 56.9903C185.228 56.4069 185.228 55.8234 185.422 55.0455L195.924 6.03704C196.702 2.14748 199.036 0.202698 202.925 0.202698C206.037 0.202698 207.787 1.56404 207.787 4.28673C207.787 4.87017 207.787 5.4536 207.593 6.23151L197.091 55.24ZM204.092 6.23151C204.092 5.84256 204.092 5.64808 204.092 5.4536C204.092 4.28673 203.509 3.7033 202.148 3.7033C200.592 3.7033 199.619 4.48121 199.23 6.23151L188.729 55.24C188.729 55.6289 188.729 55.8234 188.729 56.0179C188.729 57.1848 189.312 57.7682 190.673 57.7682C192.229 57.7682 193.202 56.9903 193.591 55.24L204.092 6.23151Z" fill="#AA8BFC"/>
<path d="M216.733 28.9857L215.956 32.4863H210.121L204.092 60.6856H200.592L213.233 1.17529H223.54L222.762 4.48142H215.956L210.705 28.9857H216.733Z" fill="#AA8BFC"/>
<path d="M230.736 28.9857L229.958 32.4863H223.929L217.9 60.6856H214.4L227.041 1.17529H237.348L236.57 4.48142H229.569L224.902 28.9857H230.736Z" fill="#AA8BFC"/>
<path d="M91.2951 106.777L90.5172 110.277H84.4884L78.4596 138.477H74.959L87.6001 78.9665H97.9074L97.1295 82.2726H90.1283L85.2663 106.777H91.2951Z" fill="#AA8BFC"/>
<path d="M101.602 133.031C100.824 136.921 98.4908 138.866 94.6012 138.866C91.4896 138.866 89.7393 137.504 89.7393 134.782C89.7393 134.198 89.7392 133.615 89.9337 132.837L100.436 83.8284C101.213 79.9388 103.547 77.994 107.437 77.994C110.548 77.994 112.299 79.3554 112.299 82.0781C112.299 82.6615 112.299 83.2449 112.104 84.0228L101.602 133.031ZM108.604 84.0228C108.604 83.6339 108.604 83.4394 108.604 83.2449C108.604 82.0781 108.02 81.4946 106.659 81.4946C105.103 81.4946 104.131 82.2725 103.742 84.0228L93.4343 133.031C93.4343 133.42 93.4343 133.615 93.4343 133.809C93.4343 134.976 94.0178 135.56 95.3791 135.56C96.9349 135.56 97.9073 134.782 98.2963 133.031L108.604 84.0228Z" fill="#AA8BFC"/>
<path d="M119.3 109.499L117.55 138.282H113.66L115.8 110.083H114.244L108.215 138.282H104.714L117.355 78.7719H123.19C126.107 78.7719 127.468 80.1333 127.468 82.6615C127.468 83.2449 127.468 84.0228 127.274 84.6063L122.995 104.249C122.995 106.777 121.634 108.527 119.3 109.499ZM120.467 82.078L115.216 106.777H116.577C117.355 106.777 117.744 106.777 118.133 106.582C119.3 106.193 119.884 105.415 120.078 104.249L124.357 84.6063C124.357 84.2173 124.357 84.0228 124.357 83.8283C124.357 82.6615 123.773 82.078 122.412 82.078H120.467Z" fill="#AA8BFC"/>
<path d="M142.443 78.7719H148.277C151.195 78.7719 152.556 80.1333 152.556 82.6615C152.556 83.2449 152.556 84.0228 152.361 84.6063L148.083 104.249C147.5 107.166 145.749 108.916 143.027 109.888C142.443 110.083 141.471 110.277 140.109 110.277H138.942L132.914 138.477H129.413L142.443 78.7719ZM145.166 82.078L139.915 106.777H141.276C142.054 106.777 142.443 106.777 142.832 106.582C143.999 106.193 144.582 105.415 144.777 104.249L149.055 84.6063C149.055 84.2173 149.055 84.0228 149.055 83.8283C149.055 82.6615 148.472 82.078 147.111 82.078H145.166Z" fill="#AA8BFC"/>
<path d="M158.196 133.031C157.418 136.921 155.084 138.866 151.194 138.866C148.083 138.866 146.333 137.504 146.333 134.782C146.333 134.198 146.332 133.615 146.527 132.837L158.001 78.5775H161.502L150.028 132.837C150.028 133.226 150.028 133.42 150.028 133.615C150.028 134.782 150.611 135.365 151.972 135.365C153.528 135.365 154.501 134.587 154.89 132.837L166.364 78.5775H169.864L158.196 133.031Z" fill="#AA8BFC"/>
<path d="M174.532 78.7719H180.755C183.672 78.7719 185.034 80.1333 185.034 82.6615C185.034 83.2449 185.034 84.0228 184.839 84.6063L180.561 104.249C180.172 105.999 178.81 107.36 176.671 108.527C178.032 109.305 178.81 110.472 178.81 111.833C178.81 112.222 178.81 112.417 178.81 112.806L174.532 132.448C173.754 136.337 171.42 138.282 167.725 138.282H161.696L174.532 78.7719ZM171.42 110.277L166.169 134.976H168.503C170.059 134.976 171.031 134.198 171.42 132.448L175.699 112.806C175.699 112.611 175.699 112.222 175.699 112.028C175.699 111.25 175.31 110.666 174.726 110.472C174.532 110.277 173.948 110.277 173.365 110.277H171.42ZM177.255 82.078L172.004 106.777H173.754C174.337 106.777 174.921 106.777 175.31 106.582C176.282 106.193 177.06 105.415 177.255 104.249L181.533 84.6063C181.533 84.2173 181.533 84.0228 181.533 83.8283C181.533 82.6615 180.95 82.078 179.588 82.078H177.255Z" fill="#AA8BFC"/>
<path d="M178.032 138.282L190.673 78.7719H194.174L182.311 134.976H189.312L188.534 138.282H178.032Z" fill="#AA8BFC"/>
<path d="M204.676 78.7719H208.177L195.536 138.282H192.035L204.676 78.7719Z" fill="#AA8BFC"/>
<path d="M217.317 97.6363L220.235 84.0228C220.235 83.6339 220.235 83.4394 220.235 83.2449C220.235 82.0781 219.651 81.4946 218.29 81.4946C216.734 81.4946 215.762 82.2725 215.373 84.0228L204.871 133.031C204.871 133.42 204.871 133.615 204.871 133.809C204.871 134.976 205.454 135.56 206.815 135.56C208.371 135.56 209.344 134.782 209.733 133.031L212.65 119.418H216.15L213.233 133.031C212.455 136.921 210.122 138.866 206.232 138.866C203.12 138.866 201.37 137.504 201.37 134.782C201.37 134.198 201.37 133.615 201.565 132.837L212.066 83.8284C212.844 79.9388 215.178 77.994 219.068 77.994C222.179 77.994 223.93 79.3554 223.93 82.0781C223.93 82.6615 223.93 83.2449 223.735 84.0228L220.818 97.6363H217.317Z" fill="#AA8BFC"/>
<path d="M244.155 106.777L238.515 133.031C237.737 136.921 235.403 138.866 231.514 138.866C228.402 138.866 226.652 137.504 226.652 134.782C226.652 134.198 226.652 133.615 226.846 132.837L237.348 83.8284C238.126 79.9388 240.46 77.994 244.349 77.994C247.461 77.994 249.211 79.3554 249.211 82.0781C249.211 82.6615 249.211 83.2449 249.017 84.0228L246.1 97.8308H242.599L245.516 84.0228C245.516 83.6339 245.516 83.4394 245.516 83.2449C245.516 82.0781 244.933 81.4946 243.571 81.4946C242.016 81.4946 241.043 82.2725 240.654 84.0228L230.152 133.031C230.152 133.42 230.152 133.615 230.152 133.809C230.152 134.976 230.736 135.56 232.097 135.56C233.653 135.56 234.625 134.782 235.014 133.031L239.876 110.277H237.932L238.71 106.777H244.155Z" fill="#AA8BFC"/>
<path d="M254.462 133.031C253.684 136.921 251.351 138.866 247.461 138.866C244.349 138.866 242.599 137.504 242.599 134.782C242.599 134.198 242.599 133.615 242.794 132.837L253.295 83.8284C254.073 79.9388 256.407 77.994 260.297 77.994C263.408 77.994 265.159 79.3554 265.159 82.0781C265.159 82.6615 265.159 83.2449 264.964 84.0228L254.462 133.031ZM261.269 84.0228C261.269 83.6339 261.269 83.4394 261.269 83.2449C261.269 82.0781 260.686 81.4946 259.324 81.4946C257.768 81.4946 256.796 82.2725 256.407 84.0228L245.905 133.031C245.905 133.42 245.905 133.615 245.905 133.809C245.905 134.976 246.489 135.56 247.85 135.56C249.406 135.56 250.378 134.782 250.767 133.031L261.269 84.0228Z" fill="#AA8BFC"/>
<path d="M270.215 133.031C269.437 136.921 267.104 138.866 263.214 138.866C260.102 138.866 258.352 137.504 258.352 134.782C258.352 134.198 258.352 133.615 258.547 132.837L269.048 83.8284C269.826 79.9388 272.16 77.994 276.05 77.994C279.161 77.994 280.912 79.3554 280.912 82.0781C280.912 82.6615 280.912 83.2449 280.717 84.0228L270.215 133.031ZM277.216 84.0228C277.216 83.6339 277.216 83.4394 277.216 83.2449C277.216 82.0781 276.633 81.4946 275.272 81.4946C273.716 81.4946 272.743 82.2725 272.354 84.0228L261.853 133.031C261.853 133.42 261.853 133.615 261.853 133.809C261.853 134.976 262.436 135.56 263.797 135.56C265.353 135.56 266.326 134.782 266.715 133.031L277.216 84.0228Z" fill="#AA8BFC"/>
<path d="M286.357 78.7719H292.58C295.497 78.7719 296.859 80.1333 296.859 82.6615C296.859 83.2449 296.859 84.0228 296.664 84.6063L286.551 132.448C285.773 136.337 283.44 138.282 279.745 138.282H273.716L286.357 78.7719ZM289.08 82.078L277.8 134.976H280.134C281.689 134.976 282.662 134.198 283.051 132.448L293.164 84.6063C293.164 84.2173 293.164 84.0228 293.164 83.8283C293.164 82.6615 292.58 82.078 291.219 82.078H289.08Z" fill="#AA8BFC"/>
<path d="M297.053 119.418L294.136 133.031C294.136 133.42 294.136 133.615 294.136 133.809C294.136 134.976 294.719 135.56 296.081 135.56C297.637 135.56 298.609 134.782 298.998 133.031L302.888 114.751C302.888 114.556 302.888 114.362 302.888 114.167C302.888 112.611 301.915 111.055 299.776 109.305C298.026 107.749 297.053 105.999 297.053 104.054C297.053 103.665 297.053 103.082 297.248 102.498L301.137 84.023C301.915 80.1334 304.249 78.1886 308.138 78.1886C311.25 78.1886 313 79.55 313 82.2727C313 82.8561 313 83.4395 312.806 84.2174L309.889 98.0254H306.388L309.305 84.2174C309.305 83.8285 309.305 83.634 309.305 83.4395C309.305 82.2727 308.722 81.6892 307.361 81.6892C305.805 81.6892 304.832 82.4671 304.443 84.2174L300.554 102.693C300.554 102.887 300.554 103.082 300.554 103.276C300.554 104.638 301.526 106.193 303.665 108.138C305.416 109.694 306.388 111.25 306.388 113.195C306.388 113.584 306.388 114.167 306.194 114.751L302.304 133.42C301.526 137.31 299.192 139.255 295.303 139.255C292.191 139.255 290.441 137.893 290.441 135.171C290.441 134.587 290.441 134.004 290.635 133.226L293.553 119.612H297.053V119.418Z" fill="#AA8BFC"/>
<path opacity="0.5" d="M6.30811 81.1058L21.2829 110.666L7.08604 138.866" stroke="#AA8BFC" stroke-miterlimit="10"/>
<path opacity="0.5" d="M25.1729 81.1058L40.3421 110.666L26.1452 138.866" stroke="#AA8BFC" stroke-miterlimit="10"/>
<path opacity="0.5" d="M46.5654 81.1058L61.7347 110.666L47.5378 138.866" stroke="#AA8BFC" stroke-miterlimit="10"/>
<path opacity="0.5" d="M308.722 59.1299L293.553 29.5692L307.75 1.36987" stroke="#AA8BFC" stroke-miterlimit="10"/>
<path opacity="0.5" d="M289.663 59.1299L274.494 29.5692L288.885 1.36987" stroke="#AA8BFC" stroke-miterlimit="10"/>
<path opacity="0.5" d="M268.27 59.1299L253.295 29.5692L267.492 1.36987" stroke="#AA8BFC" stroke-miterlimit="10"/>
</svg>
