<svg width="26" height="22" viewBox="0 0 26 22" fill="none" xmlns="http://www.w3.org/2000/svg">
<path opacity="0.5" d="M8.18468 22C18.0063 22 23.3536 13.531 23.3536 6.19885C23.3536 5.97149 23.3536 5.71572 23.3263 5.48837C24.3631 4.69263 25.2634 3.72637 26 2.61801C25.0178 3.07272 24.0084 3.35692 22.9444 3.49901C24.063 2.81695 24.8814 1.70859 25.2907 0.429725C24.2539 1.08337 23.1081 1.53808 21.9077 1.76543C19.8888 -0.479694 16.5331 -0.593371 14.3778 1.48124C13.2865 2.53276 12.6863 4.01056 12.6863 5.54521C12.6863 5.9715 12.7408 6.39779 12.8227 6.82408C8.51207 6.59672 4.52886 4.46527 1.80063 0.998111C0.381952 3.55585 1.11857 6.79566 3.46485 8.41556C2.6191 8.38714 1.80063 8.15978 1.03673 7.70507C1.03673 7.73349 1.03673 7.76191 1.03673 7.76191C1.03673 10.4049 2.83736 12.6785 5.32004 13.2184C4.52886 13.4458 3.71039 13.4742 2.9192 13.3037C3.62854 15.5772 5.62015 17.1119 7.88457 17.1687C6.0021 18.7318 3.68311 19.5844 1.28227 19.5844C0.84575 19.5844 0.436516 19.5559 0 19.4991C2.42812 21.119 5.29276 22 8.18468 22Z" fill="#AA8BFC"/>
</svg>
