<svg width="24" height="42" viewBox="0 0 24 42" fill="none" xmlns="http://www.w3.org/2000/svg">
<g opacity="0.7">
<path d="M23.1039 28.5634C23.0194 28.5211 22.1743 28.2676 21.5405 28.2676C21.0335 28.2676 20.6532 28.4366 20.3997 28.7746L20.3152 28.9014L20.2729 29.0281C20.2307 29.2394 20.0194 30.4225 19.9772 30.7183C19.9349 31.0985 20.0194 31.5211 20.2729 31.7746C20.442 31.9859 20.6955 32.1126 20.949 32.1126C20.9913 32.1126 20.9913 32.1126 21.0335 32.1126C21.0335 32.1971 21.0758 32.2394 21.0758 32.3239C21.2448 32.7887 21.6673 33.0422 22.1743 33.0422C22.2589 33.0422 22.3856 33.0422 22.5124 32.9999C22.9349 32.9154 23.8222 32.6197 23.9067 31.8591C23.949 31.6056 24.0335 30.0422 23.5687 28.9859L23.4419 28.6479L23.1039 28.5634ZM23.1462 31.7746C23.1039 32.0281 22.6814 32.1971 22.3856 32.2394C22.3011 32.2394 22.2589 32.2394 22.1743 32.2394C22.0053 32.2394 21.8363 32.1971 21.7941 32.0281C21.7096 31.8169 21.5828 30.507 21.4983 30.507C21.4138 30.507 21.0758 31.3521 20.949 31.3521C20.8222 31.3521 20.6955 31.0986 20.7377 30.8028C20.78 30.507 21.0335 29.1971 21.0335 29.1971C21.118 29.0704 21.287 29.0281 21.4983 29.0281C22.0476 29.0281 22.8504 29.2817 22.8504 29.2817C23.2307 30.1267 23.1884 31.5211 23.1462 31.7746Z" fill="#AA8BFC"/>
<path d="M22.8926 39.2108C19.3433 33.5488 17.1039 29.0277 17.1039 27.7179L17.2729 21.9714C17.8222 22.225 18.456 22.563 18.8786 22.901C19.0898 23.408 19.5546 25.3517 19.8926 26.9996L19.9349 27.2531L20.1039 27.4221C20.6109 27.8869 21.4138 27.9714 21.8363 27.9714C22.1321 27.9714 22.6391 27.9292 23.1039 27.7179L23.6109 27.4644L23.5264 26.9151C23.3152 25.0982 22.6814 20.7883 22.0053 19.901C21.287 19.0137 19.3856 18.1686 17.1462 17.2391C16.5546 16.9855 16.0898 16.7743 15.8363 16.6898L15.6673 16.6053H15.456C15.456 16.6053 14.949 16.6053 14.273 16.6053C11.3152 16.6053 9.83636 16.4785 9.45608 16.3517C9.24481 16.2672 8.442 15.4644 7.21665 13.732C6.62511 12.9292 5.52652 10.0137 5.18849 8.95741L4.85046 8.02783L4.0054 8.57713C3.45611 8.91515 2.94907 9.12642 2.52653 9.12642H1.59696L1.76597 10.0982C1.80823 10.2673 2.94907 14.7461 4.6392 17.2813C4.97722 17.7884 5.61102 18.2954 6.24482 18.8447C6.70961 19.225 7.21665 19.6898 7.51242 20.0278L8.06172 27.4221C7.8927 27.7179 7.34341 28.5207 6.92088 29.1122C5.56877 30.9714 4.59694 32.3658 4.51244 33.2953C4.30117 34.9432 3.79413 37.6897 3.58287 38.7883C2.27301 38.9573 1.85048 39.2108 1.59696 39.4643C0.794149 40.2671 0.920909 41.1544 0.963162 41.2812L1.08992 41.915H1.72372L7.34341 41.8305H8.10397V41.0277V39.7178C8.10397 39.5911 8.06171 39.3798 7.8927 39.1685C8.06171 38.1122 8.5265 35.746 9.07579 34.3939C9.24481 34.0136 10.7237 32.577 12.2025 31.2672C13.5124 33.0418 16.9772 37.8587 17.8645 40.1826C17.6532 40.6897 17.611 41.1544 17.611 41.1967L17.5687 41.9995H18.3715H23.0194H23.7799V41.239C23.949 40.6052 23.6532 39.8023 22.8926 39.2108ZM18.4983 41.239C18.4983 41.239 18.5405 40.7319 18.8363 40.2249C17.949 37.4362 12.4561 30.1263 12.4561 30.1263C12.4561 30.1263 8.82228 33.1686 8.48425 34.0559C7.8082 35.7883 7.2589 38.915 7.1744 39.4643C7.42792 39.5488 7.42792 39.6333 7.42792 39.6333V41.0277L1.80823 41.1122C1.80823 41.1122 1.68147 40.5629 2.23076 40.0136C2.52653 39.7178 3.45611 39.5911 4.38568 39.5066C4.38568 39.4643 4.34343 39.4643 4.34343 39.4643C4.34343 39.4643 5.14624 35.5348 5.39976 33.4221C5.56877 32.0277 8.94904 28.1404 8.99129 27.5489L8.39975 19.7743C7.8082 18.8869 5.94905 17.7038 5.39976 16.8588C3.75188 14.4081 2.65329 9.88698 2.65329 9.88698H2.69555C3.32935 9.88698 4.04766 9.59121 4.59695 9.25318C4.59695 9.25318 5.94905 13.1405 6.75186 14.2391C7.42792 15.1686 8.78002 16.9433 9.41382 17.1123C10.2166 17.3658 12.8786 17.4081 14.442 17.4081C15.1603 17.4081 15.6251 17.4081 15.6251 17.4081C16.5546 17.9151 20.6532 19.3517 21.5405 20.4503C22.1743 21.2531 22.8926 27.0418 22.8926 27.0418C22.6814 27.1686 22.3011 27.2108 21.9631 27.2108C21.4983 27.2108 20.9912 27.0841 20.7377 26.8728C20.7377 26.8728 19.8926 22.6897 19.5546 22.394C18.7095 21.7179 16.8082 20.8728 16.6391 20.8728L16.4279 27.7601C16.3856 29.9996 20.949 37.4362 22.3856 39.8023C23.0616 40.2671 23.2306 40.9432 23.2306 41.2812L18.4983 41.239Z" fill="#AA8BFC"/>
<path d="M1.30134 7.90137L1.47035 7.98588C1.55485 8.02813 2.1464 8.28165 2.7802 8.28165C3.66752 8.28165 4.30132 7.6901 4.30132 6.80278V6.67602L4.25907 6.54926C3.66752 4.47885 2.65344 0.929573 2.31541 0.422533C2.1464 0.169013 1.89288 0 1.59711 0C0.96331 0 0.625283 0.676053 0.583029 1.09859C0.540776 1.56337 0.836551 2.61971 1.09007 3.50703C0.752044 3.67604 0.456271 3.88731 0.287257 4.05632C-0.642315 5.19716 0.96331 7.39433 1.17458 7.64785L1.30134 7.90137ZM0.878804 4.64786C1.04782 4.47885 1.68162 4.14082 2.0619 4.05632C2.0619 4.05632 1.30133 1.73239 1.34359 1.22535C1.34359 1.05633 1.5126 0.845066 1.59711 0.845066C1.63936 0.845066 1.63936 0.845066 1.68161 0.88732C1.97739 1.35211 3.54076 6.80278 3.54076 6.80278C3.54076 7.35208 3.16048 7.52109 2.7802 7.52109C2.31542 7.52109 1.80838 7.30982 1.80838 7.30982C1.17458 6.50701 0.498525 5.1549 0.878804 4.64786Z" fill="#AA8BFC"/>
<path d="M8.56868 12.7181H9.03347H9.37149V14.1547C9.37149 14.9153 9.87853 15.4223 10.6813 15.4223H15.1602C16.0475 15.4223 16.5123 14.7885 16.5123 14.197V11.9998C16.7236 12.0421 16.9348 12.0843 17.1461 12.0843C18.2869 12.0843 18.794 10.4787 18.794 9.63362C18.794 8.32377 18.2869 7.68997 17.7799 7.43645C17.6531 4.26745 15.7517 2.15479 13.0053 2.15479C9.58276 2.15479 8.44192 5.66181 8.44192 7.22518H8.48417C7.80812 7.35194 7.17432 7.90124 7.17432 8.70405V11.366C7.17432 12.0421 7.6391 12.7181 8.56868 12.7181ZM15.7095 14.2392C15.7095 14.4082 15.5827 14.6618 15.1179 14.6618H10.6391C10.2588 14.6618 10.0898 14.4928 10.0898 14.1547V12.7181H10.2588C12.8785 12.7181 13.4278 12.7181 13.5968 12.6759C14.4841 12.5914 14.9489 11.9998 14.9067 10.9435V10.3942C14.9067 9.71813 14.8644 8.95757 14.8222 8.61954C14.7377 7.73222 14.1039 7.18293 13.1743 7.18293H10.5968C10.8504 6.33786 11.4419 5.15477 12.963 5.15477C14.5264 5.15477 15.4137 6.04209 15.6672 7.73222C15.4137 8.028 15.2447 8.36602 15.2447 8.83081C15.2447 9.25334 15.287 10.6055 15.4982 11.1125C15.5405 11.2815 15.625 11.4083 15.7517 11.535V14.2392H15.7095ZM18.0757 9.63362C18.0757 10.3097 17.6531 11.366 17.1461 11.366C16.6391 11.366 16.301 11.2815 16.1743 10.9012C16.0475 10.5209 15.963 9.33785 15.963 8.83081C15.963 8.32377 16.4278 7.90124 16.7658 7.90124C17.9067 7.94349 18.0757 8.95757 18.0757 9.63362ZM13.0053 2.9576C15.287 2.9576 16.8081 4.60548 16.9771 7.22518C16.8926 7.22518 16.8503 7.22518 16.7658 7.22518C16.6391 7.22518 16.5123 7.26744 16.3433 7.30969C15.963 5.45055 14.7799 4.43646 12.963 4.43646C11.3996 4.43646 10.2588 5.45054 9.79402 7.22518H9.16022C9.20247 5.99984 10.132 2.9576 13.0053 2.9576ZM7.89262 8.7463C7.89262 8.23926 8.35741 7.94349 8.73769 7.94349C9.11797 7.94349 13.2165 7.94349 13.2165 7.94349C13.8503 7.94349 14.0616 8.32377 14.1039 8.70405C14.1461 9.12658 14.1461 10.3097 14.1884 10.9857C14.1884 11.6618 14.0616 11.9153 13.5546 11.9576C13.2588 11.9998 11.6109 11.9998 10.2588 11.9998C9.49825 11.9998 8.77994 11.9998 8.52642 11.9998C8.06163 11.9998 7.85037 11.704 7.85037 11.4505C7.89263 11.1547 7.89262 9.25334 7.89262 8.7463Z" fill="#AA8BFC"/>
</g>
</svg>